<?xml version="1.0" standalone="no"?>
<!DOCTYPE svg PUBLIC "-//W3C//DTD SVG 20010904//EN"
 "http://www.w3.org/TR/2001/REC-SVG-20010904/DTD/svg10.dtd">
<svg version="1.0" xmlns="http://www.w3.org/2000/svg"
 width="1024.000000pt" height="1024.000000pt" viewBox="0 0 1024.000000 1024.000000"
 preserveAspectRatio="xMidYMid meet">
<metadata>
Created by potrace 1.14, written by Peter Selinger 2001-2017
</metadata>
<g transform="translate(0.000000,1024.000000) scale(0.100000,-0.100000)"
fill="#000000" stroke="none">
<path d="M0 9824 l0 -415 107 113 c60 62 150 158 202 213 93 98 263 275 410
428 l76 77 -398 0 -397 0 0 -416z"/>
<path d="M1085 10098 c-70 -79 -157 -174 -194 -213 -60 -63 -267 -292 -381
-421 -61 -68 -413 -458 -420 -464 -3 -3 -24 -27 -48 -54 l-42 -49 0 -758 0
-757 103 -90 c56 -49 264 -228 462 -396 198 -169 384 -330 414 -359 84 -81
110 -162 77 -240 -15 -36 -117 -135 -238 -230 -176 -137 -745 -601 -781 -635
l-37 -36 0 -1113 c0 -1059 1 -1118 19 -1206 19 -92 31 -154 36 -192 2 -11 23
-99 48 -195 25 -96 48 -200 52 -230 4 -30 12 -61 17 -67 6 -7 8 -13 5 -13 -3
0 -1 -17 5 -37 11 -45 18 -79 22 -113 1 -14 8 -35 14 -46 6 -12 9 -23 7 -25
-2 -3 1 -22 6 -44 6 -22 12 -49 14 -60 2 -11 14 -60 25 -110 11 -49 22 -99 25
-110 2 -11 7 -31 10 -45 3 -14 8 -38 11 -55 3 -16 10 -42 15 -57 6 -14 8 -36
4 -47 -3 -12 -2 -21 3 -21 5 0 12 -18 16 -39 3 -22 9 -46 12 -55 7 -19 -37
-40 -106 -51 l-45 -6 30 20 30 21 -35 -6 c-33 -5 -34 -5 -16 10 19 16 19 16
-5 16 -22 1 -21 2 11 20 l35 19 -40 -5 c-34 -5 -38 -4 -23 8 9 7 24 18 34 24
14 8 10 10 -22 6 -37 -4 -38 -3 -19 12 20 15 20 15 -4 16 -24 0 -24 0 -5 15
18 14 18 14 -6 15 -25 1 -25 1 -2 10 30 13 28 17 -9 15 l-31 -2 23 18 c25 19
21 22 -21 20 -25 -2 -25 -2 5 18 23 16 26 21 12 21 -10 0 -15 4 -12 10 3 5 -2
10 -12 11 -14 0 -14 2 4 9 30 12 29 18 -2 12 -28 -5 -35 14 -7 21 13 4 11 5
-5 6 -25 1 -31 16 -11 24 7 3 3 6 -10 6 -27 1 -21 18 12 32 18 8 16 9 -12 6
-40 -4 -37 10 9 35 l34 20 -47 -7 c-31 -4 -48 -3 -48 4 0 6 6 11 14 11 8 0 17
4 20 9 3 5 -2 8 -12 7 -9 0 -16 5 -14 12 1 6 -8 12 -20 12 -22 1 -23 1 -4 15
11 8 15 15 9 15 -6 0 -18 3 -27 6 -15 6 -16 -58 -16 -680 0 -451 3 -686 10
-686 6 0 10 5 10 10 0 6 9 10 19 10 24 0 111 57 111 72 0 6 -11 8 -25 6 -21
-4 -25 -1 -25 18 0 14 6 24 14 24 8 0 27 6 43 14 15 8 53 25 84 38 43 17 55
27 51 40 -3 13 5 22 29 33 l34 16 -35 -6 c-72 -12 -90 -13 -90 -4 0 5 15 16
33 24 l32 15 -47 -3 c-54 -2 -50 14 10 34 l36 12 -23 18 -23 19 39 15 c21 9
56 24 78 35 l40 19 -40 -6 c-39 -6 -40 -5 -23 14 17 18 17 20 0 37 -16 16 -16
18 0 30 12 9 14 16 7 23 -13 13 -5 18 39 28 20 4 32 3 32 -4 0 -6 -3 -10 -8
-10 -21 4 -42 -2 -42 -11 0 -7 6 -7 18 -1 26 14 45 -2 45 -38 0 -17 4 -31 9
-31 15 0 8 -19 -9 -23 -16 -4 -16 -5 -1 -6 20 -1 39 -55 43 -120 1 -26 10 -59
19 -73 9 -14 18 -38 20 -54 3 -16 12 -61 21 -101 9 -39 15 -77 14 -85 -3 -12
6 -47 49 -183 8 -27 16 -70 17 -95 1 -25 7 -56 12 -70 21 -50 43 -138 60 -238
l18 -102 3725 0 3725 1 81 28 c45 15 87 32 95 37 7 4 20 9 29 10 8 1 25 5 37
9 18 6 21 4 16 -14 -4 -17 -1 -21 18 -21 18 0 20 3 11 12 -16 16 -15 28 3 28
9 0 18 7 21 15 4 8 15 15 25 15 11 0 27 4 37 10 72 39 329 108 422 112 74 3
98 -6 79 -28 -11 -13 -5 -14 41 -8 l53 7 -5 -32 c-4 -27 -2 -30 14 -25 10 3
18 1 18 -3 0 -5 16 -15 35 -21 22 -8 32 -18 29 -26 -6 -16 35 -58 48 -50 4 3
13 2 19 -1 7 -5 2 -16 -12 -31 l-22 -24 496 0 497 0 0 715 c0 596 -2 715 -14
722 -7 4 -78 69 -157 144 -79 74 -198 185 -264 245 -66 60 -148 137 -183 172
-61 61 -103 88 -116 75 -3 -4 -6 -24 -6 -45 0 -22 -4 -38 -9 -36 -11 4 -279
345 -368 468 -34 47 -86 114 -117 149 -92 106 -78 106 78 1 58 -38 108 -70
110 -70 7 0 205 -128 359 -231 70 -48 165 -122 210 -165 45 -44 120 -112 167
-153 76 -66 133 -118 268 -245 l42 -40 -1 389 c-1 215 -3 381 -6 370 -4 -18
-40 -54 -54 -55 -10 0 -69 59 -69 70 0 5 29 30 65 55 l65 47 0 1037 0 1038
-117 63 c-167 89 -287 156 -533 295 -118 68 -275 154 -348 193 -161 86 -175
96 -203 146 -46 82 -21 186 76 309 76 96 156 137 270 137 83 0 125 -14 203
-67 37 -26 162 -90 277 -144 116 -53 245 -113 288 -133 42 -20 79 -36 82 -36
3 0 5 33 5 73 0 54 -5 80 -20 105 -11 17 -16 32 -12 32 4 0 -1 5 -11 11 -15 9
-16 13 -5 27 8 10 9 13 1 9 -17 -10 -28 13 -12 24 11 7 10 9 -5 9 -20 0 -20 0
0 16 18 15 18 15 0 10 -20 -7 -45 18 -46 46 0 9 -8 18 -18 21 -14 3 -13 6 8
15 l25 11 -27 0 c-18 1 -28 6 -28 16 0 8 -5 15 -11 15 -8 0 -7 6 2 17 8 10 9
14 2 10 -6 -4 -15 -2 -19 4 -3 6 -1 15 6 19 8 5 3 10 -15 14 -23 6 -25 9 -14
22 10 12 9 16 -9 21 -24 6 -29 19 -9 26 6 3 3 6 -8 7 -16 1 -14 4 10 15 l30
15 -32 -6 c-17 -3 -34 0 -38 5 -6 11 27 28 67 33 13 2 28 6 33 10 21 13 125
21 125 9 0 -6 -12 -13 -27 -17 -42 -9 -86 -26 -108 -42 l-20 -14 20 7 c11 4
52 15 90 25 l70 17 2 324 c2 226 -1 319 -8 306 -5 -9 -7 -22 -3 -29 4 -7 3 -8
-4 -4 -7 4 -12 1 -12 -6 0 -7 -12 -24 -25 -37 -25 -23 -35 -48 -13 -35 7 4 8
3 4 -4 -4 -7 -14 -12 -22 -12 -8 0 -12 -4 -9 -10 3 -5 2 -10 -2 -10 -14 0 -90
-104 -97 -133 -5 -23 -11 -27 -27 -22 -15 5 -22 2 -26 -14 -3 -11 -8 -19 -12
-17 -3 2 -17 -2 -31 -10 l-25 -15 32 6 c27 6 32 4 30 -14 -1 -19 -20 -27 -104
-44 -38 -8 -36 11 3 29 21 10 32 20 25 22 -7 2 -18 -1 -24 -7 -16 -16 -44 -14
-50 4 -4 10 4 17 26 24 86 26 122 45 153 79 18 20 34 40 34 43 0 3 11 19 26
35 14 16 30 38 36 48 9 18 8 17 -17 -2 -15 -12 -35 -22 -44 -23 -10 0 -12 -2
-3 -6 6 -2 12 -9 12 -14 0 -6 -7 -6 -17 -1 -19 10 -119 -19 -107 -30 3 -4 26
1 51 9 34 12 47 13 56 4 9 -9 8 -11 -3 -8 -8 2 -12 2 -7 0 13 -8 -34 -63 -54
-63 -11 0 -18 -4 -15 -9 8 -13 -31 -20 -43 -8 -8 8 -25 7 -62 -2 -27 -7 -53
-10 -56 -7 -4 3 0 6 8 7 8 1 3 4 -11 9 l-25 7 29 12 c23 9 31 9 38 -1 6 -10 8
-8 8 5 0 9 7 18 15 18 8 1 20 3 25 4 6 1 17 3 26 4 8 0 13 5 9 11 -4 6 -15 6
-31 0 -61 -24 -125 -29 -131 -12 -3 7 3 12 14 12 10 0 25 5 33 11 11 7 4 8
-25 4 -30 -5 -36 -4 -25 4 13 9 12 12 -7 17 -27 7 -31 24 -5 24 9 0 24 5 32
11 11 7 5 8 -21 3 -22 -3 -39 -1 -43 5 -7 11 93 44 208 67 39 8 89 24 111 35
46 24 53 25 -165 -35 -120 -33 -166 -42 -171 -34 -4 7 -5 16 -3 20 3 4 0 8 -6
8 -7 0 -10 7 -6 15 3 9 0 15 -9 15 -8 0 -15 7 -15 15 0 25 -1 29 -12 43 -8 9
-5 12 13 12 29 1 84 29 57 30 -9 0 -19 -4 -22 -9 -7 -11 -81 -9 -81 3 0 7 60
27 100 33 5 1 11 7 13 15 2 8 0 9 -5 3 -4 -5 -17 -11 -28 -13 -11 -1 -38 -5
-60 -8 -30 -4 -36 -3 -25 5 13 9 12 11 -5 11 -15 0 -17 3 -7 9 10 6 8 10 -10
16 -22 7 -22 7 7 15 l30 8 -32 1 c-40 1 -44 18 -5 24 26 4 26 4 -4 6 -17 0
-37 7 -43 15 -9 11 -6 16 19 24 36 13 40 25 5 16 -31 -8 -67 22 -44 37 11 7
11 9 -3 9 -30 0 -20 17 20 34 33 15 34 16 7 11 -16 -3 -37 -8 -45 -10 -19 -6
-46 45 -29 56 6 3 1 9 -13 13 -21 6 -22 7 -6 19 15 12 13 14 -14 25 -28 10
-29 13 -17 29 12 15 12 16 -3 11 -12 -5 -21 2 -31 25 -28 58 -31 85 -10 90 12
3 10 5 -8 6 -24 1 -40 17 -38 38 1 3 -7 11 -16 16 -14 8 -15 11 -4 18 12 7 11
9 -1 9 -8 0 -20 9 -25 19 -6 11 -39 75 -74 143 -88 168 -101 195 -101 208 0 5
-9 19 -21 31 -11 11 -18 26 -16 32 2 7 -2 17 -9 22 -8 6 -15 20 -17 32 -2 12
-10 30 -19 40 -14 17 -30 50 -32 66 -1 4 -6 11 -12 15 -10 7 -24 36 -23 48 0
4 -4 10 -9 13 -10 6 -72 136 -71 148 0 3 -6 10 -15 15 -9 5 -16 16 -16 24 0
14 -19 54 -31 64 -3 3 -39 70 -79 150 -40 80 -100 197 -133 260 -33 63 -105
203 -160 310 -55 107 -107 209 -117 225 -10 17 -44 82 -76 145 -31 63 -64 122
-71 132 -8 9 -15 22 -17 30 -1 7 -9 27 -17 43 -9 17 -58 111 -109 210 -51 99
-99 188 -107 197 -9 10 -13 24 -10 33 4 8 2 15 -2 15 -5 0 -28 37 -51 83 -24
45 -51 94 -62 110 l-19 27 -145 0 -144 0 -628 -126 c-345 -69 -697 -139 -782
-155 -85 -16 -501 -98 -925 -183 -423 -85 -804 -160 -845 -168 -103 -21 -1399
-280 -2215 -444 -1544 -310 -1852 -369 -1864 -358 -2 2 11 10 29 18 27 11 30
15 14 18 -16 3 -15 6 11 21 25 13 26 16 10 17 -14 1 -9 6 18 18 22 10 37 24
37 34 0 10 8 18 18 19 14 0 14 2 -3 9 l-20 9 20 1 c11 0 34 7 50 15 l30 14
-28 -6 c-22 -4 -26 -2 -21 11 3 9 12 16 19 16 7 0 16 7 19 16 5 12 2 15 -11
10 -32 -13 -4 6 44 29 29 14 40 24 29 24 -15 1 -11 9 23 41 23 22 46 40 50 40
5 0 11 9 14 20 3 11 19 26 37 33 30 13 30 14 9 23 -20 9 -18 11 22 24 28 8 37
15 27 18 -27 5 -22 16 13 29 17 7 28 17 24 22 -3 6 1 11 10 11 11 0 15 5 11
15 -3 9 0 15 9 15 8 0 15 4 15 9 0 5 10 12 23 16 l22 7 -25 7 -25 8 30 12 c17
6 39 15 50 20 19 9 20 10 0 10 -29 1 -7 18 55 41 l55 20 -45 -5 c-53 -7 -47 1
23 33 40 17 45 22 22 19 -16 -2 -39 -7 -50 -12 -16 -5 -15 -3 5 14 14 11 31
21 38 21 10 0 16 12 14 31 -1 3 10 12 23 19 13 7 26 23 29 36 4 13 11 24 17
24 5 0 26 16 46 35 20 19 33 35 29 35 -10 0 14 24 39 38 11 6 14 12 8 12 -22
0 -14 19 15 34 20 12 23 15 9 16 -15 0 -12 5 12 26 22 18 37 24 53 19 22 -7
22 -6 4 7 -13 10 -15 17 -8 22 7 4 24 -4 39 -18 15 -15 31 -26 35 -26 10 0
108 -149 108 -165 0 -7 -8 -15 -17 -18 -16 -5 -119 -46 -168 -67 -43 -18 -52
-16 -94 21 -37 31 -48 36 -64 27 -16 -8 -19 -18 -15 -59 5 -52 43 -119 68
-119 13 0 13 -1 0 -10 -12 -7 -11 -12 8 -28 12 -10 19 -22 15 -26 -3 -3 3 -6
14 -6 22 0 47 -23 36 -33 -3 -4 6 -7 20 -7 17 0 27 -5 27 -15 0 -8 8 -15 18
-15 9 -1 26 -8 37 -18 29 -25 85 -98 85 -111 0 -6 7 -11 16 -11 8 0 12 -4 9
-10 -3 -5 1 -10 10 -10 9 0 14 -4 11 -9 -4 -5 4 -7 16 -3 16 4 19 2 13 -8 -6
-10 0 -11 30 -6 25 5 35 4 30 -3 -8 -14 -11 -14 65 10 106 34 164 48 174 42 5
-4 6 -1 3 4 -4 6 7 13 26 17 17 3 55 15 82 25 28 10 95 31 150 46 55 15 115
32 132 38 58 19 27 18 -48 -1 -118 -31 -129 -33 -129 -23 0 6 16 13 35 17 19
3 35 10 35 16 0 5 5 6 10 3 6 -4 33 1 60 11 28 10 45 21 39 25 -6 3 3 11 20
17 17 6 31 16 31 21 0 6 7 11 16 11 10 0 14 6 11 14 -3 7 0 19 6 25 8 8 7 11
-6 11 -9 0 -17 5 -17 12 0 20 -44 78 -57 74 -7 -3 -5 6 5 23 13 24 14 34 2 75
-7 26 -18 50 -25 52 -15 6 -144 -40 -192 -68 -34 -21 -35 -22 -29 -70 7 -52 0
-80 -15 -57 -5 8 -9 30 -9 48 0 24 -9 44 -27 64 l-28 29 33 -19 c23 -13 35
-15 40 -7 4 6 39 27 79 45 l72 34 -52 56 c-29 31 -61 69 -73 84 l-21 29 -86
-33 c-57 -22 -94 -31 -111 -27 -36 9 -73 46 -85 86 l-11 35 3 -42 c3 -43 -7
-59 -16 -25 -4 15 -5 15 -6 -2 0 -10 12 -35 28 -55 l29 -37 -87 -37 c-48 -20
-90 -37 -93 -37 -3 0 -21 24 -39 52 -19 29 -47 67 -62 85 -34 38 -39 34 91 69
56 15 71 22 42 18 -25 -3 -54 -8 -65 -10 -14 -4 -16 -3 -7 4 10 7 10 12 -3 22
-16 13 -15 15 2 21 13 6 9 8 -15 8 -22 1 -31 -3 -26 -10 4 -7 1 -10 -7 -7 -8
3 -24 1 -36 -3 -41 -15 -24 -1 25 22 66 31 207 34 228 5 11 -15 14 -16 14 -5
0 41 -155 63 -242 35 -54 -18 -98 -50 -98 -71 0 -6 24 -38 53 -71 63 -69 260
-361 253 -373 -3 -5 -20 -11 -38 -14 -18 -3 -42 -8 -53 -12 -20 -6 -20 -6 0 6
10 7 32 15 48 18 l28 6 -49 65 c-27 36 -81 115 -121 175 -40 61 -91 129 -113
151 l-40 41 20 39 c21 40 85 97 108 97 7 0 11 4 8 8 -2 4 5 10 16 14 11 3 27
19 36 35 10 16 27 33 38 39 15 7 -19 10 -126 10 l-146 1 -127 -142z m242 -110
c-3 -8 -6 -5 -6 6 -1 11 2 17 5 13 3 -3 4 -12 1 -19z m103 -8 c0 -5 -8 -10
-17 -10 -15 0 -16 2 -3 10 19 12 20 12 20 0z m385 -230 c3 -6 -1 -7 -9 -4 -18
7 -21 14 -7 14 6 0 13 -4 16 -10z m32 -86 c-3 -3 -12 -4 -19 -1 -8 3 -5 6 6 6
11 1 17 -2 13 -5z m-569 -73 c-1 -3 3 -16 10 -28 17 -31 12 -29 -27 11 -32 33
-32 33 -7 29 14 -3 24 -8 24 -12z m371 -85 c0 -68 -13 -54 -21 26 -4 36 -2 45
8 41 10 -4 14 -23 13 -67z m-239 -10 c0 -2 -9 -6 -20 -9 -11 -3 -20 -1 -20 4
0 5 9 9 20 9 11 0 20 -2 20 -4z m3660 -1348 c0 -19 -11 -31 -53 -63 -29 -21
-41 -25 -50 -16 -13 13 -3 25 53 65 40 28 50 31 50 14z m-496 -42 c11 4 16 0
16 -11 0 -9 13 -22 30 -28 38 -15 38 -27 0 -27 -20 0 -40 -11 -64 -34 -35 -36
-46 -36 -46 -4 0 13 -7 18 -25 18 -14 0 -25 4 -25 8 0 5 11 14 25 20 24 11 30
26 25 66 -2 19 -1 19 24 3 14 -9 32 -14 40 -11z m698 -25 c82 -32 91 -108 17
-145 -67 -33 -138 -12 -125 37 11 46 63 76 81 47 10 -17 -15 -40 -44 -40 -23
-1 -24 -2 -8 -11 26 -15 68 -7 84 18 13 19 12 24 -7 43 -18 18 -30 21 -58 17
-107 -18 -108 -144 -1 -166 18 -4 34 -11 36 -16 5 -15 -50 -13 -65 2 -7 7 -19
13 -25 13 -8 0 -7 -3 2 -9 7 -5 11 -15 9 -22 -3 -8 -1 -23 5 -34 10 -19 9 -19
-10 -2 -29 26 -83 130 -83 160 0 71 117 137 192 108z m-1072 -33 c19 -9 43
-19 53 -22 17 -5 17 -7 3 -22 -9 -9 -23 -29 -32 -46 -8 -16 -18 -28 -22 -26
-40 20 -80 38 -95 42 -17 6 -16 9 12 35 17 16 31 37 31 46 0 9 3 15 8 13 4 -2
23 -11 42 -20z m748 -109 c2 -4 -15 -19 -37 -34 -38 -23 -41 -28 -41 -70 0
-43 2 -46 30 -51 17 -4 30 -10 30 -14 0 -9 -69 -30 -74 -22 -12 20 -26 139
-26 226 l0 99 58 -63 c31 -35 58 -67 60 -71z m540 89 c7 -7 8 -17 1 -30 -12
-22 -32 -23 -49 -3 -23 28 21 60 48 33z m162 -25 c24 -21 26 -33 5 -33 -8 0
-15 5 -15 11 0 6 -9 8 -20 4 -22 -7 -23 -5 -14 19 8 21 19 20 44 -1z m-1638
-87 c16 -24 6 -33 -53 -45 -34 -7 -63 -10 -65 -8 -5 4 15 118 23 130 4 7 78
-53 95 -77z m1792 38 c21 -8 20 -24 -1 -40 -24 -18 -40 -17 -47 1 -13 34 11
53 48 39z m-2097 -19 c11 -8 39 -17 62 -21 l41 -6 -24 -19 c-13 -10 -29 -32
-36 -49 -9 -22 -18 -30 -29 -26 -9 3 -37 12 -63 22 l-48 16 24 29 c14 16 27
38 31 49 8 24 14 25 42 5z m693 -16 c0 -5 -9 -9 -20 -9 -19 0 -27 20 -13 33 7
8 33 -11 33 -24z m1020 -4 c18 -19 23 -35 22 -67 -1 -23 -4 -43 -6 -46 -7 -7
-56 96 -56 118 0 27 12 25 40 -5z m-700 -22 c0 -9 -6 -13 -15 -10 -8 4 -17 2
-20 -3 -4 -6 3 -10 14 -10 30 0 26 -16 -8 -28 -25 -9 -32 -7 -52 14 -18 19
-19 24 -7 24 9 0 18 6 21 13 8 20 67 20 67 0z m890 -13 c13 -8 11 -14 -12 -36
-16 -17 -32 -24 -42 -21 -21 8 -20 23 4 47 22 22 29 24 50 10z m-245 -45 c30
-53 38 -82 24 -91 -25 -15 -91 98 -74 125 11 20 23 12 50 -34z m766 23 c92
-33 100 -39 106 -86 7 -49 -8 -56 -37 -19 -12 15 -39 28 -75 37 -57 14 -75 30
-75 69 0 26 2 26 81 -1z m-1778 -4 c40 -9 78 -21 85 -27 24 -19 202 -415 202
-449 0 -20 -61 -133 -83 -153 -12 -11 -34 -35 -49 -52 -26 -33 -26 -33 -10
-83 11 -35 13 -53 5 -61 -7 -7 -14 3 -22 35 -6 25 -20 51 -30 58 -18 13 -18
15 15 51 19 20 34 33 34 29 0 -7 16 19 46 76 14 25 15 35 6 44 -10 10 -18 5
-40 -22 -87 -113 -156 -164 -177 -131 -13 22 -62 22 -98 1 -26 -15 -46 -20
-69 -16 -18 3 -53 9 -78 12 -25 4 -79 22 -120 41 -135 61 -212 164 -212 283 0
70 24 121 84 177 69 63 142 87 263 87 130 0 196 -24 273 -100 66 -66 92 -121
91 -194 0 -68 -15 -112 -60 -174 -19 -27 -41 -58 -49 -70 -21 -29 74 51 98 83
69 93 80 166 43 263 -109 283 -566 329 -748 75 -42 -57 -52 -101 -42 -170 18
-114 88 -225 164 -261 l35 -17 -29 -43 c-24 -34 -27 -46 -18 -56 10 -10 7 -11
-13 -5 -46 14 -70 40 -105 110 -27 56 -138 342 -157 405 -6 20 66 111 106 132
80 44 257 112 320 123 101 19 254 18 339 -1z m1520 -61 c-43 -54 -53 -63 -70
-63 -34 0 17 68 72 98 37 21 37 12 -2 -35z m-2457 23 c3 -8 12 -12 20 -9 15 5
19 -8 7 -21 -5 -4 -8 -13 -8 -19 0 -7 -7 -12 -15 -12 -9 0 -14 7 -12 20 3 16
1 18 -9 8 -16 -15 -39 -17 -39 -3 0 12 32 48 43 49 4 1 10 -5 13 -13z m1618
-12 c9 -24 -2 -34 -40 -34 -34 0 -39 5 -28 34 8 21 60 21 68 0z m-438 -19 c88
-36 170 -144 162 -212 -3 -28 -3 -28 -23 12 -13 28 -20 35 -23 23 -2 -10 -11
-18 -20 -18 -15 0 -15 2 -2 10 9 6 10 10 3 10 -6 0 -14 -4 -18 -10 -3 -5 -12
-7 -20 -3 -8 3 -15 0 -15 -6 0 -6 -4 -11 -9 -11 -7 0 -101 197 -101 214 0 10
29 7 66 -9z m1434 -41 c8 -21 7 -29 -7 -39 -15 -11 -7 -12 48 -8 40 3 74 1 85
-5 17 -10 16 -11 -11 -12 -25 0 -111 -20 -198 -46 -12 -4 -20 2 -26 18 -8 20
-2 30 37 71 25 26 50 47 54 47 5 0 13 -12 18 -26z m-2444 -9 c8 -19 -13 -45
-36 -45 -22 0 -30 19 -18 43 11 21 47 23 54 2z m1464 -15 c0 -16 4 -30 9 -30
10 0 14 -10 25 -63 4 -15 11 -25 16 -22 6 4 7 -1 3 -11 -5 -13 -3 -15 7 -9 10
6 12 4 7 -8 -6 -16 8 -34 16 -20 2 5 2 2 0 -6 -2 -8 1 -18 8 -21 6 -4 12 -19
12 -33 2 -19 5 -23 14 -15 10 8 12 3 6 -22 -4 -22 -3 -31 5 -27 6 5 8 0 5 -11
-2 -11 3 -26 12 -35 8 -9 15 -19 14 -22 -2 -12 24 -65 32 -65 5 0 9 -6 9 -14
0 -12 -47 -32 -55 -24 -5 5 -146 309 -181 392 -37 84 -35 96 14 96 18 0 22 -6
22 -30z m550 16 c0 -16 -32 -58 -78 -103 -40 -39 -42 -39 -42 -12 0 39 32 90
69 109 44 23 51 24 51 6z m800 0 c0 -18 -16 -29 -30 -21 -13 8 -1 35 16 35 8
0 14 -6 14 -14z m-3227 -12 c92 -24 196 -82 183 -103 -4 -5 -1 -13 5 -17 8 -4
9 -3 5 4 -10 16 -1 15 12 -1 8 -10 6 -13 -10 -14 -11 -1 -28 -8 -37 -16 -24
-21 -47 -27 -59 -15 -8 8 -9 4 -5 -12 10 -36 -12 -16 -49 45 -18 30 -36 55
-40 55 -14 0 -9 -30 12 -70 25 -49 25 -55 -1 -57 -28 -2 -49 -21 -42 -39 3 -8
8 -12 11 -9 3 2 12 -4 20 -16 8 -11 11 -23 8 -26 -3 -4 -6 -1 -6 6 0 7 -4 10
-8 7 -9 -5 -39 30 -61 72 -29 54 -35 222 -9 222 6 0 37 -7 71 -16z m2933 -11
c-7 -7 -26 7 -26 19 0 6 6 6 15 -2 9 -7 13 -15 11 -17z m-1072 -165 c100 -210
130 -284 121 -297 -3 -6 -19 -11 -34 -11 -26 0 -33 11 -135 232 -111 241 -113
247 -58 248 20 0 34 -22 106 -172z m307 105 c41 -27 69 -73 43 -73 -25 0 -92
38 -108 62 -38 53 -7 59 65 11z m504 -20 c14 -48 28 -68 81 -119 l64 -62 -37
10 c-53 14 -104 42 -130 70 -39 42 -67 131 -46 151 3 4 17 7 29 7 19 0 25 -9
39 -57z m370 -3 c3 -6 -7 -18 -24 -28 -35 -19 -38 -28 -16 -52 14 -15 14 -18
0 -30 -12 -10 -18 -10 -29 0 -22 18 -62 9 -58 -13 5 -31 -40 -16 -65 22 -13
19 -22 39 -20 44 6 18 131 60 194 66 6 1 15 -4 18 -9z m149 -5 c16 -12 16 -16
5 -28 -15 -14 -53 -37 -63 -37 -10 0 -7 27 6 55 13 28 25 31 52 10z m256 -20
c11 -13 10 -18 -6 -30 -27 -20 -54 -19 -54 3 0 37 38 54 60 27z m-970 -9 c0
-21 -114 -95 -126 -83 -9 8 39 58 74 77 45 23 52 24 52 6z m-2050 -197 c29
-77 51 -142 48 -144 -3 -3 -27 2 -54 10 -27 8 -50 15 -52 15 -7 0 4 -46 13
-52 5 -4 6 -10 2 -14 -12 -12 -58 38 -83 91 -40 83 -31 165 24 230 35 42 36
40 102 -136z m1742 132 c60 -38 69 -53 26 -44 -52 9 -88 31 -88 53 0 26 8 25
62 -9z m-2348 -42 c-9 -10 -21 -16 -25 -13 -5 3 -9 0 -9 -5 0 -6 -9 -2 -20 9
l-21 21 23 18 c20 17 24 17 45 3 22 -14 23 -16 7 -33z m3793 34 c3 -7 -7 -17
-20 -22 -14 -5 -27 -15 -29 -21 -2 -6 -10 -12 -18 -13 -23 -4 -54 -28 -80 -64
-33 -46 -37 -32 -6 21 14 24 26 47 26 50 0 3 -16 6 -36 6 -62 0 -33 24 52 41
90 19 106 19 111 2z m-281 -91 c-3 -9 -21 -35 -41 -57 -42 -49 -44 -36 -13 72
l22 75 18 -37 c11 -20 17 -44 14 -53z m-1026 40 c0 -39 -22 -91 -53 -127 -46
-53 -56 -30 -14 31 19 27 37 66 41 87 7 36 26 43 26 9z m-602 -20 c2 -16 -3
-25 -20 -31 -42 -15 -71 15 -41 44 22 23 57 15 61 -13z m978 -36 c24 -18 17
-25 -30 -33 -31 -5 -36 -3 -36 14 0 36 30 44 66 19z m479 3 c9 -14 -24 -49
-47 -49 -24 0 -34 26 -18 45 14 17 56 20 65 4z m-646 -8 c11 -7 9 -12 -11 -25
-31 -20 -70 -25 -75 -8 -3 7 10 19 29 27 39 17 39 17 57 6z m-2822 -41 c42
-18 73 -60 73 -97 0 -46 -61 -103 -119 -112 -39 -7 -49 -22 -26 -44 17 -17 20
-31 5 -22 -5 3 -10 2 -10 -3 0 -17 -79 -42 -132 -42 -101 0 -178 63 -178 145
0 29 7 44 34 71 39 39 74 44 133 19 20 -9 43 -13 50 -11 20 8 15 34 -7 41 -25
8 -26 27 -1 49 41 37 99 39 178 6z m293 -29 c0 -10 -12 -23 -26 -29 -14 -7
-22 -17 -18 -23 4 -7 2 -10 -5 -8 -7 3 -20 17 -29 32 -13 21 -14 29 -4 39 10
10 15 10 22 -1 7 -12 11 -12 25 2 19 20 35 14 35 -12z m-522 -3 c-5 -13 -59
-31 -67 -22 -9 9 30 34 52 34 10 0 17 -5 15 -12z m3509 -13 c42 -14 87 -32
102 -41 l26 -15 -30 5 c-16 2 -69 12 -118 22 -48 9 -89 15 -92 12 -3 -3 2 -22
10 -43 9 -20 14 -39 11 -42 -6 -6 -66 98 -66 115 0 20 75 14 157 -13z m802 -2
c23 -15 23 -17 6 -30 -22 -16 -61 -17 -70 -2 -7 10 21 49 34 49 4 0 17 -7 30
-17z m-3784 -23 c-3 -5 -14 -10 -23 -10 -15 0 -15 2 -2 10 20 13 33 13 25 0z
m2718 -10 c4 -17 -6 -33 -23 -35 -3 -1 -31 -13 -63 -28 -32 -15 -66 -27 -76
-27 -18 0 -47 47 -36 59 6 6 159 48 181 50 7 1 14 -8 17 -19z m861 -5 c4 -14
4 -36 0 -49 -6 -25 -4 -24 -169 -66 -51 -13 -59 -18 -76 -54 -17 -35 -49 -57
-56 -38 -11 30 -182 -5 -254 -53 -57 -37 -76 -33 -45 8 16 20 26 47 26 66 0
41 -14 33 -44 -27 -35 -69 -54 -82 -173 -113 -129 -34 -143 -35 -143 -9 0 20
12 25 130 50 92 19 108 29 140 85 17 29 37 58 44 65 14 11 560 156 597 159 10
1 19 -9 23 -24z m-1187 -37 c18 -29 35 -62 39 -72 6 -16 4 -18 -12 -12 -43 18
-52 18 -64 -4 -7 -13 -13 -33 -15 -46 -2 -26 -50 -94 -66 -94 -5 0 -9 6 -9 13
0 17 44 147 59 176 17 31 -3 26 -32 -9 l-25 -29 -5 32 c-2 18 -2 38 1 45 5 13
69 51 87 52 6 0 25 -24 42 -52z m-557 -98 c40 -36 31 -36 -65 1 l-60 22 -64
-66 c-35 -37 -66 -66 -68 -64 -2 3 48 162 72 225 5 14 120 -60 185 -118z
m-265 90 c10 -16 -14 -50 -35 -50 -14 0 -20 7 -20 23 0 13 3 27 7 30 10 10 41
8 48 -3z m570 -108 c-4 -30 -10 -51 -13 -47 -8 8 -3 136 6 150 11 16 15 -43 7
-103z m-2084 76 c85 -29 179 -126 179 -186 0 -46 -97 -172 -120 -157 -6 4 -10
0 -10 -7 0 -7 -9 2 -20 20 -25 41 -40 33 -35 -19 2 -23 0 -37 -6 -34 -5 4 -9
1 -9 -5 0 -17 -103 -9 -141 11 -90 48 -99 47 -99 -8 0 -34 -1 -35 -18 -19 -27
23 -39 263 -17 307 17 32 65 72 115 93 42 18 134 20 181 4z m1945 -30 c52 -39
99 -87 92 -94 -7 -7 -86 55 -122 95 -25 28 -8 27 30 -1z m769 -18 c19 -37 19
-35 -9 -36 -14 -1 -35 -12 -48 -24 l-23 -21 60 2 c48 2 61 0 63 -13 2 -11 -8
-17 -35 -21 -21 -4 -65 -15 -97 -26 l-58 -19 -23 52 c-44 98 -47 92 47 114
109 26 105 26 123 -8z m1124 16 c10 -12 7 -18 -14 -32 -24 -15 -28 -16 -42 -2
-17 18 -8 42 13 34 8 -3 14 -1 14 4 0 15 16 12 29 -4z m-3616 -28 c8 -30 2
-34 -29 -19 -21 9 -24 14 -14 26 18 22 37 18 43 -7z m587 -9 c53 -14 102 -20
136 -17 l52 4 -22 -29 c-21 -29 -22 -29 -91 -23 -39 3 -102 15 -139 26 -66 21
-67 22 -50 41 21 23 13 23 114 -2z m2635 -3 c-11 -8 -24 -12 -29 -9 -5 4 -6 1
-2 -6 4 -6 11 -9 16 -6 5 3 11 1 15 -5 4 -6 -8 -10 -29 -10 -36 0 -48 -10 -53
-45 -4 -21 -36 -52 -40 -38 -2 4 1 28 5 53 7 41 11 46 52 62 25 9 54 17 64 17
20 1 20 1 1 -13z m-2330 -25 c22 -11 48 -23 59 -26 17 -5 16 -7 -8 -32 -14
-14 -26 -30 -26 -34 0 -13 -58 -11 -97 3 -18 7 -33 16 -33 22 0 12 50 86 59
86 3 0 24 -9 46 -19z m1269 -16 c61 -39 78 -65 42 -65 -29 0 -72 33 -91 71 -9
16 -13 29 -10 29 2 0 29 -16 59 -35z m1633 -75 c26 0 8 -22 -27 -34 -19 -6
-62 -18 -95 -26 -33 -7 -66 -18 -73 -23 -7 -5 -42 -10 -77 -10 -36 -1 -62 -3
-57 -6 9 -8 11 -71 2 -71 -10 0 -60 51 -60 61 0 5 9 9 20 9 11 0 23 7 26 15 5
11 11 12 25 4 12 -6 19 -6 19 0 0 5 -4 11 -10 13 -6 2 -7 24 -3 56 6 57 14 61
71 41 25 -8 39 -7 74 9 l43 19 54 -29 c30 -15 60 -28 68 -28z m-3297 30 c8 -5
11 -10 5 -10 -5 0 -17 5 -25 10 -8 5 -10 10 -5 10 6 0 17 -5 25 -10z m-219
-52 c37 -29 66 -54 64 -56 -2 -3 -27 5 -54 17 -70 30 -77 28 -91 -24 -13 -46
-44 -95 -60 -95 -5 0 7 47 27 105 19 58 37 105 40 105 3 0 36 -23 74 -52z
m2700 33 c19 -16 21 -21 9 -25 -8 -3 -28 -10 -43 -16 -16 -6 -63 -17 -105 -26
-43 -8 -93 -21 -112 -28 -19 -7 -91 -25 -160 -40 -69 -15 -133 -31 -142 -36
-13 -7 -18 -5 -23 11 -4 11 -5 22 -3 23 1 2 77 22 168 45 91 22 210 57 265 76
55 19 105 35 111 35 7 0 22 -9 35 -19z m-3559 -31 c7 -45 -4 -55 -41 -36 -38
20 -39 31 -3 50 37 21 39 20 44 -14z m1231 13 c-7 -2 -21 -2 -30 0 -10 3 -4 5
12 5 17 0 24 -2 18 -5z m101 -25 c14 -52 -5 -62 -24 -13 -6 15 -19 25 -37 28
-21 3 -18 4 13 6 35 1 43 -2 48 -21z m-1870 -21 c12 -9 16 -20 12 -33 -5 -16
-13 -19 -41 -16 -31 4 -60 21 -38 23 40 4 71 19 39 19 -9 0 -14 5 -11 10 8 13
18 13 39 -3z m402 -47 c51 -32 69 -72 38 -84 -12 -5 -15 -2 -10 11 5 16 5 16
-8 0 -23 -29 -89 -34 -124 -8 -35 25 -122 63 -134 59 -4 -2 29 -30 73 -62 l82
-59 -69 -22 c-38 -12 -74 -20 -80 -18 -25 9 -57 86 -58 142 l-1 56 60 6 c101
11 192 3 231 -21z m991 -27 c24 -42 25 -47 10 -58 -9 -7 -17 -17 -17 -24 0
-25 -18 -8 -34 32 -23 61 -20 117 5 101 5 -3 21 -26 36 -51z m2935 11 c-19 -8
-73 -25 -120 -38 -290 -79 -358 -99 -370 -108 -20 -17 -41 8 -22 27 17 16 469
133 515 133 l30 0 -33 -14z m567 -47 c13 -32 21 -60 18 -64 -9 -8 -37 17 -37
33 0 8 -10 24 -22 36 -19 19 -26 20 -60 11 -27 -7 -38 -7 -39 1 0 6 -5 0 -11
-14 -6 -14 -12 -20 -15 -13 -6 16 -33 5 -33 -14 0 -8 4 -11 10 -8 5 3 7 0 4
-8 -3 -8 2 -21 10 -30 17 -17 22 -47 7 -47 -7 0 -61 111 -61 126 0 2 7 4 16 4
14 0 83 19 144 39 38 13 43 9 69 -52z m-3175 -3 c21 -21 3 -57 -26 -52 -30 4
-45 32 -29 52 17 20 35 20 55 0z m714 -10 c4 -27 -21 -47 -48 -39 -20 6 -28
44 -13 59 15 15 58 1 61 -20z m626 10 c9 -24 7 -84 -3 -84 -9 0 -21 47 -21 81
0 23 16 25 24 3z m-890 -105 c299 -177 878 -528 890 -539 4 -5 5 -13 1 -19 -7
-12 -169 67 -204 100 -10 10 -21 15 -24 12 -3 -2 -32 10 -64 29 -73 42 -350
178 -363 178 -18 0 -10 -12 27 -45 35 -30 36 -34 23 -51 -14 -17 -13 -18 1 -6
13 10 18 10 28 -1 6 -8 7 -18 3 -22 -4 -5 -2 -5 4 -2 6 3 39 -23 74 -58 36
-36 60 -65 54 -65 -6 0 -19 9 -29 20 -10 11 -22 17 -28 13 -5 -3 -7 -1 -4 4 4
6 0 14 -9 17 -9 3 -12 11 -8 18 4 7 4 10 -1 6 -4 -4 -16 -3 -26 2 -12 7 -20 6
-25 -2 -4 -6 -3 -8 2 -5 6 3 16 2 24 -4 11 -6 12 -9 2 -9 -8 0 -10 -5 -6 -12
4 -6 -14 4 -39 23 -144 105 -231 167 -258 183 l-31 18 7 -23 c4 -13 79 -167
166 -341 88 -175 157 -318 155 -318 -3 0 -56 27 -118 61 -154 83 -485 249
-498 249 -5 0 -10 -14 -10 -31 0 -32 60 -132 153 -253 26 -35 42 -66 39 -75
-3 -9 -1 -12 6 -7 6 4 24 -13 42 -39 30 -43 32 -64 3 -27 -13 15 -13 15 -7 -8
6 -25 6 -25 -11 -5 -17 20 -17 20 -10 0 5 -17 1 -15 -22 8 -36 33 -39 33 -47
2 -6 -24 -26 -27 -26 -4 0 6 5 7 12 3 7 -4 8 -3 4 5 -12 18 -28 2 -20 -21 4
-13 2 -18 -4 -14 -6 3 -14 1 -18 -5 -5 -9 1 -10 20 -5 21 5 26 3 26 -11 0 -14
-2 -15 -9 -5 -6 10 -10 9 -14 -7 -3 -12 -11 -21 -19 -20 -10 0 -10 2 0 6 6 2
12 9 12 15 0 7 -16 8 -46 4 -58 -8 -74 -17 -48 -28 15 -7 14 -7 -6 -3 -14 2
-33 5 -42 5 -10 0 -18 7 -18 17 0 9 -2 14 -5 11 -11 -11 7 -57 23 -61 13 -4
12 -5 -3 -6 -14 -1 -25 9 -34 31 -9 21 -16 27 -19 18 -3 -8 0 -16 7 -18 6 -2
11 -11 11 -19 0 -9 -6 -13 -15 -9 -13 5 -14 2 -4 -16 9 -16 13 -18 20 -7 6 9
9 10 9 2 0 -25 -20 -23 -37 4 -10 15 -26 37 -35 47 -10 11 -18 23 -18 28 0 20
-19 5 -31 -24 -109 -273 -257 -603 -266 -594 -6 5 84 346 133 506 48 157 121
384 274 850 71 217 132 407 136 423 3 15 8 27 11 27 3 0 82 -46 177 -101z
m2237 71 c-79 -28 -107 -32 -85 -11 14 14 105 40 139 40 21 0 4 -9 -54 -29z
m-4551 10 c0 -5 7 -6 17 -3 10 4 14 2 9 -5 -3 -6 1 -15 9 -19 13 -7 8 -14 -24
-35 -38 -25 -39 -25 -45 -5 -4 15 -8 18 -18 10 -10 -9 -13 -6 -14 13 -1 15 4
24 12 24 8 0 17 7 20 15 7 16 34 21 34 5z m2960 -35 c0 -8 -7 -15 -15 -15 -8
0 -15 7 -15 15 0 8 7 15 15 15 8 0 15 -7 15 -15z m1680 -5 c12 -8 11 -10 -7
-10 -32 0 -73 -21 -73 -37 0 -7 -5 -13 -11 -13 -5 0 -7 -5 -4 -10 4 -6 11 -8
16 -5 5 4 9 -1 9 -9 0 -10 -6 -13 -16 -9 -9 3 -20 0 -24 -7 -9 -14 -34 52 -27
73 3 9 39 21 117 36 3 0 12 -4 20 -9z m-752 -33 c3 -16 -22 -46 -39 -47 -4 0
-17 8 -29 18 -21 17 -22 19 -5 36 22 22 69 18 73 -7z m-2694 -100 c27 -49 42
-85 39 -98 -9 -34 -25 -16 -53 61 -15 41 -32 89 -39 105 -19 47 4 17 53 -68z
m4079 81 c7 -7 13 -26 14 -41 1 -24 -2 -28 -19 -24 -13 4 -22 -1 -28 -16 -8
-21 -9 -20 -9 6 -1 17 -6 27 -16 27 -8 0 -15 6 -15 14 0 17 24 28 45 20 11 -5
13 -2 9 10 -7 19 3 21 19 4z m-4561 -15 c29 -26 22 -43 -17 -43 -39 0 -55 21
-35 45 16 19 29 19 52 -2z m403 -40 c-2 -7 1 -15 7 -19 19 -12 58 -114 57
-152 0 -37 -1 -37 -30 28 -17 36 -33 79 -36 95 -3 17 -9 35 -13 40 -4 6 -10
24 -14 40 l-7 30 21 -25 c11 -14 18 -30 15 -37z m238 45 c12 -7 23 -14 25 -15
8 -4 -31 -53 -42 -53 -7 0 -22 11 -33 24 -19 22 -20 25 -5 40 20 19 26 20 55
4z m1463 -14 c10 -40 -39 -62 -66 -29 -20 24 -3 55 30 55 24 0 31 -5 36 -26z
m652 15 c-5 -15 -68 -53 -68 -41 0 12 48 52 62 52 5 0 8 -5 6 -11z m-2498 -92
c0 -7 -80 -30 -86 -25 -3 3 -2 29 2 57 l7 51 38 -39 c22 -22 39 -41 39 -44z
m3400 65 c0 -10 -134 -56 -225 -78 -38 -9 -75 -20 -81 -25 -6 -5 -14 -6 -17
-2 -4 3 -7 1 -7 -6 0 -7 -4 -10 -9 -6 -5 3 -12 1 -16 -5 -6 -10 -45 8 -45 21
0 9 93 37 245 75 143 36 155 37 155 26z m-4128 -28 c15 -8 51 -18 80 -23 52
-8 52 -9 13 -10 -23 0 -45 -5 -50 -10 -6 -5 -55 -21 -110 -36 -151 -40 -226
-66 -268 -92 -47 -29 -68 -27 -81 10 -23 64 37 109 197 150 154 40 161 40 219
11z m4813 4 c15 -22 14 -24 -11 -34 -28 -12 -74 -7 -74 7 0 14 39 49 54 49 8
0 22 -10 31 -22z m-1770 -22 c107 -82 66 -213 -69 -224 -77 -6 -139 26 -170
87 -23 43 -15 89 22 123 44 42 64 49 124 45 43 -2 65 -10 93 -31z m1508 -98
c24 -45 55 -91 68 -101 24 -17 28 -17 139 12 93 23 132 28 205 26 96 -3 166
-17 183 -38 8 -9 -3 -12 -51 -14 -34 0 -101 -2 -149 -4 -48 -1 -85 -5 -83 -10
3 -4 0 -11 -6 -15 -8 -5 -9 -3 -4 6 6 10 3 11 -16 6 -13 -4 -46 -12 -74 -17
-27 -5 -51 -13 -53 -19 -3 -7 -8 -8 -16 -1 -6 5 -24 15 -40 21 -27 10 -28 10
-21 -17 3 -14 39 -101 79 -192 41 -91 76 -177 79 -191 l6 -25 -20 28 c-27 35
-46 34 -149 -7 -81 -33 -85 -36 -85 -65 0 -17 -3 -31 -8 -31 -8 0 -147 284
-188 383 -23 59 -24 59 -59 53 l-36 -6 -38 93 c-52 126 -52 127 -30 127 11 0
82 18 159 40 77 21 145 39 152 39 6 1 31 -36 56 -81z m-3948 -153 c13 -16 33
-50 45 -74 29 -58 14 -67 -53 -33 -63 33 -161 42 -208 18 -18 -9 -33 -16 -34
-16 -1 0 -10 18 -20 40 -23 51 -16 164 14 233 l21 49 106 -94 c59 -51 117
-106 129 -123z m198 95 c35 -82 45 -115 38 -128 -8 -13 -21 7 -65 102 -31 65
-53 122 -50 127 15 24 33 0 77 -101z m-60 0 c38 -88 56 -167 49 -204 -4 -21
-17 4 -93 179 -41 92 -43 115 -12 115 13 0 29 -24 56 -90z m-573 66 c0 -3 -24
-16 -54 -29 -37 -17 -60 -35 -70 -56 -9 -16 -16 -32 -16 -35 0 -3 24 -3 53 0
50 5 51 5 26 -10 -15 -8 -75 -27 -135 -42 -60 -14 -114 -31 -121 -36 -6 -5
-15 -23 -18 -39 -7 -32 -20 -38 -29 -13 -6 16 16 68 35 79 6 4 47 17 91 29
l81 21 11 45 12 45 -121 -31 c-148 -38 -159 -44 -187 -97 -22 -41 -23 -41 -26
-15 -8 66 53 102 243 142 66 14 134 30 150 35 32 10 75 14 75 7z m4933 -15 c6
-6 -31 -10 -108 -10 -109 0 -140 9 -75 22 38 8 171 0 183 -12z m-1704 -10 c13
-24 -8 -55 -34 -50 -23 5 -40 32 -32 53 9 22 54 20 66 -3z m1351 6 c0 -47 -76
-83 -111 -51 -28 25 -19 37 37 51 66 15 74 15 74 0z m-3215 -27 c0 -8 -10 -16
-22 -18 -18 -3 -23 2 -23 18 0 16 5 21 23 18 12 -2 22 -10 22 -18z m2510 -30
c-3 -5 -10 -10 -15 -10 -6 0 -32 -14 -60 -31 -46 -28 -70 -31 -70 -8 0 5 24
21 53 34 53 25 103 33 92 15z m-2767 -42 c31 -31 -9 -71 -53 -54 -15 5 -21 47
-8 59 11 11 48 8 61 -5z m2914 -73 c7 -16 8 -29 2 -33 -5 -5 -54 -21 -108 -36
-95 -27 -100 -27 -113 -10 -24 32 -16 52 25 63 20 5 62 16 92 25 78 20 89 19
102 -9z m3288 10 c-28 -16 -70 -21 -54 -6 9 9 38 18 64 19 8 1 4 -5 -10 -13z
m-4177 -46 c16 -26 1 -49 -32 -49 -35 0 -45 12 -37 46 5 20 12 25 33 22 14 -2
31 -10 36 -19z m-3263 -6 c0 -5 -18 -21 -40 -36 -46 -32 -51 -61 -20 -95 16
-17 32 -22 70 -22 27 0 60 4 75 10 23 9 25 8 15 -10 -6 -11 -27 -24 -48 -31
-99 -29 -193 54 -151 132 17 33 99 76 99 52z m3600 -44 c0 -14 -7 -19 -25 -19
-18 0 -25 5 -25 19 0 11 6 21 13 24 20 7 37 -4 37 -24z m657 -4 c-2 -14 -2
-23 2 -20 8 8 33 -83 32 -116 -1 -14 5 -34 13 -44 13 -18 11 -55 -4 -55 -9 0
-23 -39 -21 -57 1 -7 -4 -13 -11 -13 -9 0 -9 -3 2 -11 13 -9 13 -10 0 -6 -8 2
-14 12 -14 21 2 20 -12 21 -20 1 -3 -8 -10 -15 -17 -15 -6 0 -8 7 -4 18 4 12
3 14 -5 6 -7 -7 -7 -20 1 -43 14 -39 8 -45 -50 -59 l-43 -10 -38 81 c-72 158
-123 277 -119 281 11 11 229 65 263 65 36 1 38 -1 33 -24z m3306 0 c2 -12 -57
-32 -116 -41 -59 -9 -38 10 38 35 64 20 76 21 78 6z m-7046 -20 c28 -14 59
-35 69 -46 17 -19 17 -20 -6 -11 -29 11 -72 3 -63 -11 12 -20 -87 1 -127 27
-46 30 -49 39 -17 54 37 18 91 13 144 -13z m-260 -86 c73 -51 130 -95 128 -97
-12 -12 -295 166 -295 187 0 23 31 7 167 -90z m-598 54 l24 -16 -23 -19 c-23
-19 -56 -25 -45 -9 3 5 -4 11 -15 13 -19 3 -20 4 -5 26 19 26 33 28 64 5z
m7905 11 c19 -7 21 -30 4 -38 -7 -3 -1 -4 15 -1 15 3 27 1 27 -4 0 -6 8 -8 18
-4 15 6 15 4 -3 -16 l-19 -22 29 6 c29 6 29 6 11 -9 -17 -14 -17 -16 -4 -16 9
0 20 5 23 10 3 6 13 10 20 10 24 0 5 -28 -23 -35 -72 -17 -104 -27 -100 -30 2
-2 28 2 58 10 64 17 82 18 57 4 -24 -14 -122 -39 -152 -39 -26 0 -34 15 -12
23 7 3 5 6 -5 6 -18 1 -64 78 -54 89 3 3 1 11 -5 19 -6 7 -10 13 -8 13 2 0 22
7 44 15 46 16 57 17 79 9z m-6110 -59 c49 -27 91 -56 94 -63 2 -7 -9 -48 -26
-90 -16 -42 -33 -97 -37 -122 -9 -59 -27 -120 -35 -120 -3 0 -28 25 -54 55
-26 30 -51 55 -55 55 -4 0 -31 -62 -61 -137 -164 -427 -312 -774 -325 -761
-17 17 171 607 390 1226 6 16 1 19 109 -43z m3584 -14 c-20 -26 -120 -80 -201
-111 -55 -20 -15 10 74 56 54 28 101 60 117 80 19 24 28 30 30 19 2 -8 -7 -28
-20 -44z m-5568 34 c0 -8 9 -15 20 -15 23 0 23 0 10 -35 -9 -23 -13 -25 -26
-14 -12 10 -20 10 -35 1 -10 -7 -19 -8 -19 -3 0 5 -3 16 -6 24 -3 9 3 16 15
20 12 3 21 12 21 21 0 9 5 16 10 16 6 0 10 -7 10 -15z m1617 -21 c15 -40 -48
-73 -74 -39 -8 13 -9 23 -2 36 13 24 67 26 76 3z m2063 -109 c69 -40 226 -127
350 -195 282 -153 311 -176 100 -77 -295 138 -530 235 -530 218 0 -8 64 -124
143 -258 37 -62 64 -113 62 -113 -3 0 -68 29 -144 65 -77 36 -146 65 -153 65
-9 0 -34 -53 -67 -142 -103 -280 -90 -256 -141 -271 -25 -8 -47 -12 -49 -11
-2 2 57 185 130 407 127 383 135 404 154 394 11 -5 76 -42 145 -82z m-3350 25
c0 -15 -28 -27 -120 -50 -137 -35 -132 -35 -128 -15 2 14 27 25 103 45 110 30
145 35 145 20z m755 -51 c-4 -5 3 -9 14 -9 30 0 26 -12 -12 -37 -39 -27 -47
-28 -47 -8 0 8 -6 12 -14 9 -20 -8 -26 8 -12 28 22 29 88 46 71 17z m-328 -6
c7 -17 -32 -56 -50 -50 -22 7 -31 35 -18 51 18 21 60 20 68 -1z m4968 -8 c-16
-14 -34 -25 -40 -25 -9 0 55 49 65 49 3 0 -8 -11 -25 -24z m-5395 -10 c0 -8
-17 -19 -42 -26 -102 -27 -193 -47 -200 -43 -18 11 -5 24 35 35 38 11 181 45
200 48 4 0 7 -6 7 -14z m68 -9 c9 -21 15 -23 60 -18 49 4 51 3 67 -29 24 -45
66 -171 60 -177 -3 -3 -5 1 -5 8 0 7 -3 10 -7 7 -3 -4 -12 -2 -20 4 -10 9 -13
7 -13 -7 0 -17 -1 -17 -14 1 -10 14 -30 20 -81 23 l-67 4 -37 -42 c-35 -41
-39 -43 -75 -36 -26 5 -40 14 -43 27 -4 14 -10 18 -22 13 -9 -4 -35 -9 -59
-12 l-42 -4 2 -52 c2 -28 -1 -52 -5 -53 -4 -1 -19 -16 -33 -32 l-25 -30 17
-66 c16 -63 14 -90 -5 -69 -13 14 -113 304 -118 345 -5 35 -4 37 33 49 54 17
65 28 58 56 -4 17 -2 24 9 24 8 0 17 -7 21 -15 8 -21 26 -19 175 16 131 31
131 31 131 60 0 35 22 39 38 5z m707 -26 c3 -5 1 -10 -4 -10 -6 0 -11 5 -11
10 0 6 2 10 4 10 3 0 8 -4 11 -10z m426 -20 c46 -25 1 -83 -47 -61 -28 12 -31
33 -8 55 18 19 28 20 55 6z m3249 -25 c0 -8 -2 -15 -4 -15 -2 0 -6 7 -10 15
-3 8 -1 15 4 15 6 0 10 -7 10 -15z m-3820 -20 c36 -18 49 -60 27 -82 -15 -15
-122 -63 -142 -63 -5 0 -20 -16 -33 -35 -26 -40 -39 -43 -74 -15 -62 48 -25
155 67 196 41 18 119 17 155 -1z m4703 -7 c30 5 18 -19 -18 -34 -19 -8 -35
-20 -35 -27 0 -6 -5 -4 -11 5 -12 21 17 72 35 61 6 -4 19 -6 29 -5z m-243 -13
c0 -8 -9 -15 -20 -15 -20 0 -26 11 -13 23 12 13 33 7 33 -8z m474 0 c-4 -8 -1
-15 5 -15 6 0 11 -5 11 -11 0 -6 -9 -8 -20 -4 -11 4 -20 2 -20 -4 0 -17 -27
-13 -34 5 -10 26 -7 33 14 29 11 -2 20 0 20 6 0 5 7 9 15 9 9 0 12 -6 9 -15z
m-1024 -14 c0 -5 -12 -12 -27 -16 -16 -3 -54 -18 -85 -32 -53 -24 -88 -26 -88
-5 0 4 44 20 98 34 53 15 98 27 100 27 1 1 2 -3 2 -8z m37 3 c-3 -3 -12 -4
-19 -1 -8 3 -5 6 6 6 11 1 17 -2 13 -5z m403 -78 c0 -7 -118 -46 -205 -67 -49
-12 -99 -27 -111 -34 -25 -16 -56 -3 -38 15 25 25 354 105 354 86z m-4834 -38
c18 -16 44 -78 44 -105 0 -8 -70 -26 -153 -38 -15 -2 -32 -7 -38 -11 -12 -7
-131 -36 -133 -32 -18 34 -47 122 -44 135 6 31 51 39 105 16 41 -17 48 -24 51
-51 3 -27 0 -32 -25 -38 -52 -11 -63 -15 -63 -23 0 -5 17 -3 38 5 20 7 48 14
62 14 14 0 49 11 78 24 l54 23 -47 1 c-28 0 -54 6 -62 15 -14 13 -13 18 3 40
43 57 86 65 130 25z m584 23 c0 -5 -28 -26 -62 -47 -35 -20 -82 -52 -105 -71
-23 -18 -44 -33 -47 -33 -3 0 -6 13 -6 29 0 37 40 72 112 99 29 11 60 22 68
25 24 9 40 8 40 -2z m4487 -61 c15 -28 20 -52 17 -69 -7 -30 -71 -101 -91
-101 -7 0 -13 -6 -14 -12 -2 -24 -27 67 -28 100 -1 18 4 43 10 55 17 33 62 78
74 74 5 -2 20 -23 32 -47z m316 -30 c31 -15 34 -37 11 -86 -27 -56 -64 -76
-140 -75 -109 1 -112 18 -11 67 64 31 68 35 32 29 -47 -8 -103 -35 -168 -82
-56 -41 -75 -39 -21 2 22 17 46 50 62 84 38 86 36 84 127 78 44 -2 92 -11 108
-17z m-4884 -13 c-2 -2 -21 -15 -42 -31 -36 -27 -57 -30 -42 -7 8 13 78 51 84
45 2 -2 2 -5 0 -7z m551 -12 c48 -24 71 -45 50 -45 -6 0 -29 9 -51 21 -23 11
-42 19 -44 17 -10 -12 -35 -70 -35 -83 0 -8 -4 -15 -10 -15 -5 0 -10 8 -10 19
0 20 38 111 46 111 2 0 27 -11 54 -25z m1004 -11 c3 -8 2 -12 -4 -9 -6 3 -10
10 -10 16 0 14 7 11 14 -7z m2179 4 c3 -10 11 -10 35 -1 31 11 32 11 26 -13
-5 -18 -1 -29 12 -39 18 -14 17 -14 -8 -15 -21 0 -28 -5 -28 -19 0 -28 -17
-35 -25 -10 -4 12 -12 18 -21 15 -8 -3 -21 -9 -29 -12 -17 -7 -21 11 -4 21 7
5 5 13 -6 25 -18 20 -7 34 18 24 12 -4 14 0 10 15 -6 22 12 30 20 9z m-3319
-77 c-11 -2 -25 -8 -31 -13 -16 -13 -16 -6 -1 27 11 24 12 24 31 8 18 -17 19
-18 1 -22z m3971 -39 c18 -43 18 -43 -2 -64 -27 -26 -52 -17 -55 19 -2 38 1
85 8 102 7 20 25 -1 49 -57z m-4291 45 c17 -13 17 -14 1 -30 -20 -21 -61 -22
-69 -2 -6 16 18 45 38 45 7 0 20 -6 30 -13z m1193 -23 c-3 -3 -12 -4 -19 -1
-8 3 -5 6 6 6 11 1 17 -2 13 -5z m2193 -30 c-5 -20 -13 -41 -19 -47 -14 -14
-185 -60 -730 -198 -289 -72 -482 -126 -493 -136 -39 -35 1 -84 40 -50 22 19
1105 287 1160 287 4 0 -5 -34 -20 -72 -13 -36 18 -26 -548 -171 -475 -122
-725 -186 -760 -197 -19 -5 -55 -10 -80 -10 -45 0 -57 5 -173 70 -80 44 -138
44 -331 -4 -83 -20 -182 -41 -220 -46 -100 -13 -143 -27 -206 -66 -35 -22 -87
-41 -145 -54 -49 -11 -135 -31 -190 -45 -61 -14 -104 -20 -109 -14 -6 6 -3 9
10 9 10 0 26 5 34 10 12 8 9 10 -12 10 -15 0 -33 -6 -41 -14 -12 -13 -18 -12
-45 7 -38 26 -39 33 -9 40 12 3 126 32 252 66 127 34 734 187 1350 340 616
153 1156 288 1200 299 44 11 83 20 86 21 4 1 3 -15 -1 -35z m702 10 c30 -15
31 -17 13 -30 -10 -7 -22 -11 -27 -8 -5 3 -15 0 -23 -6 -11 -10 -15 -7 -21 15
-4 18 -2 30 7 36 18 11 15 12 51 -7z m-4372 -29 c-58 -18 -195 -56 -305 -85
-110 -29 -215 -58 -232 -65 -32 -14 -56 -4 -37 15 14 14 606 168 644 168 26 0
8 -8 -70 -33z m4959 -52 c27 -7 4 -12 -69 -16 -55 -3 -81 0 -97 11 -30 19 -29
28 3 39 19 6 44 3 88 -11 34 -10 67 -21 75 -23z m-769 30 c0 -12 -61 -44 -71
-37 -13 8 -11 32 4 37 19 8 67 8 67 0z m-2716 -19 c3 -8 2 -12 -4 -9 -6 3 -10
10 -10 16 0 14 7 11 14 -7z m-2316 -25 c2 -11 -7 -18 -29 -23 -35 -7 -51 6
-42 31 8 20 67 13 71 -8z m5436 -26 c-10 -15 -20 -30 -22 -33 -1 -2 -7 2 -12
10 -7 11 -2 21 18 37 34 27 39 23 16 -14z m-4257 10 c3 -7 -17 -18 -49 -27
-101 -29 -108 -29 -108 -12 0 10 21 22 63 35 68 21 88 22 94 4z m4397 -4 c37
-17 41 -39 7 -39 -44 0 -91 -11 -91 -22 0 -6 26 -8 60 -6 62 3 68 0 48 -20
-25 -25 -128 -7 -128 22 0 17 53 76 69 76 5 0 21 -5 35 -11z m-4632 -76 c14
-43 54 -159 89 -259 65 -187 69 -223 26 -203 -18 8 -69 -2 -265 -55 -251 -67
-262 -71 -262 -87 0 -16 28 -10 261 51 265 70 262 69 229 56 -14 -6 -49 -23
-77 -38 -29 -15 -53 -23 -53 -19 0 8 -114 -22 -241 -64 -26 -8 -54 -15 -63
-15 -9 0 -16 -4 -16 -9 0 -5 -13 -14 -30 -19 -36 -13 -31 -22 -98 163 -104
288 -145 416 -135 426 12 12 539 147 578 148 30 1 32 -2 57 -76z m3733 67 c10
-16 -14 -40 -40 -40 -29 0 -36 9 -24 31 10 20 54 26 64 9z m205 -47 c36 -16
74 -40 84 -52 20 -21 20 -22 0 -40 -10 -10 -55 -27 -99 -39 -44 -11 -88 -23
-97 -27 -13 -5 -18 1 -24 31 -6 32 -2 48 27 101 19 35 36 62 39 60 3 -2 34
-17 70 -34z m405 2 c29 -28 31 -42 10 -73 -14 -18 -19 -20 -36 -9 -16 10 -21
9 -28 -2 -12 -18 -48 -5 -56 20 -22 70 59 116 110 64z m-5120 -35 c0 -20 -6
-26 -29 -28 -43 -5 -57 15 -27 39 31 26 56 21 56 -11z m1045 -4 c0 -18 -8 -27
-32 -35 -34 -12 -48 -3 -48 31 0 17 17 25 58 27 17 1 22 -4 22 -23z m29 -68
c23 -62 23 -63 -12 -76 -45 -16 -43 -16 -56 19 -16 46 -14 59 12 69 35 14 47
12 56 -12z m4510 15 c-1 -19 -57 -52 -78 -46 l-22 6 22 23 c21 22 80 35 78 17z
m-616 -78 c34 -69 34 -76 -3 -97 -28 -16 -30 -16 -42 1 -7 10 -31 30 -52 45
-110 75 -270 -13 -252 -139 5 -40 4 -43 -21 -50 -14 -3 -29 -2 -33 2 -9 10
-70 152 -70 163 0 11 67 35 245 85 199 57 195 58 228 -10z m812 32 c-16 -12
-40 -32 -52 -44 -23 -22 -23 -22 -34 -2 -13 26 -9 30 49 51 64 22 72 21 37 -5z
m-5793 -68 c43 -41 49 -74 22 -137 -16 -40 -15 -40 -51 15 -11 16 -12 15 -7
-9 5 -23 3 -26 -13 -22 -11 3 -33 16 -49 29 -24 19 -29 30 -28 67 0 23 6 62
13 86 l12 43 31 -18 c17 -10 49 -34 70 -54z m4485 45 c6 -17 -29 -27 -39 -12
-5 9 -8 6 -8 -9 0 -26 -12 -30 -30 -8 -22 26 -4 47 37 43 20 -2 38 -8 40 -14z
m792 -8 c-2 -2 -40 -17 -84 -34 -72 -28 -107 -29 -92 -4 6 8 97 35 152 45 20
3 32 0 24 -7z m-1029 -13 c-1 -15 -27 -43 -34 -36 -4 4 -4 0 -1 -9 5 -12 -2
-17 -30 -22 -21 -4 -33 -11 -29 -18 4 -5 0 -14 -7 -20 -11 -7 -9 -8 6 -5 11 2
19 9 18 15 -2 7 2 12 7 12 6 0 10 -4 10 -9 0 -17 -31 -34 -102 -53 -40 -11
-104 -29 -142 -39 -88 -24 -103 -24 -111 1 -8 24 -23 25 -54 4 -17 -12 -20
-19 -11 -24 8 -5 -4 -12 -31 -18 -24 -6 -71 -20 -104 -30 -125 -41 -579 -162
-685 -183 -82 -17 -178 17 -290 100 -30 23 -59 40 -65 38 -11 -4 -30 -60 -40
-119 -6 -37 -7 -38 -51 -38 -58 0 -92 -18 -137 -73 -32 -39 -45 -47 -104 -62
-37 -9 -134 -35 -214 -58 l-147 -40 -81 39 c-64 31 -77 40 -64 48 20 11 218
65 373 101 183 43 310 120 352 212 23 53 60 73 131 73 43 0 64 -7 113 -36 75
-46 126 -64 178 -64 22 0 120 20 216 45 320 82 1096 272 1123 274 4 1 7 -2 7
-6z m-3121 -50 c6 -20 9 -38 8 -38 -1 -1 -17 -7 -34 -13 -34 -11 -37 -10 -52
31 -9 24 -7 28 17 41 41 23 50 19 61 -21z m-110 -71 c36 -124 9 -126 -43 -3
-21 50 -24 66 -15 78 21 24 33 9 58 -75z m3748 64 c-8 -19 15 -27 50 -16 19 6
22 9 9 9 -11 1 -17 4 -13 7 3 4 14 3 24 0 17 -7 17 -8 -1 -22 -23 -16 -14 -19
14 -4 15 8 23 5 39 -19 35 -48 22 -104 -29 -134 -50 -30 -97 -20 -152 31 -21
19 -28 35 -28 63 0 47 35 86 73 80 4 0 7 4 7 9 0 6 3 10 6 10 3 0 4 -6 1 -14z
m28 -6 c3 -5 1 -10 -4 -10 -6 0 -11 5 -11 10 0 6 2 10 4 10 3 0 8 -4 11 -10z
m726 -31 c15 -8 14 -12 -9 -40 -76 -88 -116 -129 -128 -129 -7 0 -20 -13 -30
-29 -36 -60 -140 -104 -197 -82 -21 8 -27 17 -27 41 0 30 1 31 22 16 41 -29
121 -14 150 28 35 50 -38 146 -79 105 -13 -13 -43 -5 -43 10 0 11 8 14 145 62
110 39 151 43 196 18z m-4358 -49 c16 -41 16 -41 -9 -50 -40 -15 -54 -12 -64
16 -21 53 -13 65 46 73 6 0 18 -17 27 -39z m-1047 -7 c-3 -8 -2 -12 3 -9 18
11 43 -76 36 -124 -12 -82 -37 -85 -76 -9 -25 49 -24 93 2 135 20 33 47 38 35
7z m5536 -20 c45 -48 73 -104 82 -165 l7 -48 -54 0 c-30 0 -69 -3 -86 -6 -39
-8 -42 12 -6 46 29 27 33 50 8 50 -24 -1 -61 -30 -76 -60 -17 -34 -65 -46
-122 -30 -25 7 -45 15 -45 18 0 12 230 232 243 232 7 0 29 -17 49 -37z m-5663
-86 c29 -22 81 -95 81 -113 0 -2 -13 -4 -29 -4 -80 0 -154 65 -175 152 l-6 28
57 -25 c31 -14 64 -31 72 -38z m5008 6 c-3 -18 -1 -20 12 -13 14 7 16 3 13
-26 -2 -18 -8 -32 -12 -29 -4 2 -5 -7 -2 -20 6 -35 -8 -31 -53 15 l-40 40 26
23 c14 12 24 29 22 37 -3 10 0 9 7 -3 6 -9 8 -23 4 -30 -5 -9 -4 -9 6 0 11 10
11 18 2 40 -12 26 -11 27 3 8 9 -11 14 -30 12 -42z m-590 17 c6 0 16 -6 22
-14 9 -11 8 -15 -4 -20 -8 -3 -20 -17 -26 -30 l-12 -25 -33 27 c-41 32 -42 45
-9 60 14 6 25 17 25 24 1 8 6 7 14 -4 7 -10 18 -18 23 -18z m-296 0 c-13 -11
-32 -20 -42 -20 -10 0 -19 -4 -19 -9 0 -8 -42 -18 -110 -27 -14 -1 -41 -6 -60
-9 -26 -5 -32 -4 -24 5 10 10 241 78 269 79 6 0 -1 -9 -14 -19z m-2917 -5 c4
-10 -5 -19 -27 -28 -28 -12 -33 -12 -39 2 -10 25 -9 29 10 34 34 9 50 7 56 -8z
m1184 -77 c-41 -50 -114 -90 -196 -107 -31 -7 -158 -39 -281 -72 -196 -53
-225 -58 -240 -46 -9 8 -31 22 -50 32 -46 23 -39 26 166 76 120 28 186 50 232
75 81 44 155 64 251 65 41 1 86 5 100 9 49 16 52 10 18 -32z m2243 -12 c-13
-26 -17 -29 -19 -14 -2 11 2 26 8 34 22 25 28 15 11 -20z m285 -15 c116 -101
115 -99 51 -125 l-37 -15 -34 68 c-19 37 -41 73 -50 80 -9 8 -16 17 -16 22 0
16 54 -3 86 -30z m-1245 2 c-19 -36 -65 -67 -100 -67 -19 0 -28 -2 -20 -5 14
-4 -9 -11 -232 -75 -219 -61 -347 -78 -398 -51 -18 9 -31 18 -29 19 8 8 748
195 771 195 14 1 16 -3 8 -16z m3495 -28 c43 -24 84 -48 89 -52 6 -4 17 -9 25
-11 8 -2 120 -55 248 -118 178 -87 235 -120 244 -139 6 -14 9 -28 5 -31 -3 -3
-33 -8 -66 -11 -34 -3 -61 -9 -61 -13 0 -4 7 -24 15 -43 8 -20 15 -38 15 -40
0 -3 -20 -10 -45 -16 -31 -8 -45 -17 -45 -29 -1 -13 -9 -8 -32 18 -17 19 -84
91 -149 160 -65 69 -128 138 -140 153 l-21 28 22 24 c25 27 20 46 -10 38 -11
-3 -20 -1 -20 3 0 5 -12 15 -27 21 -16 7 -41 24 -58 39 -16 14 -41 34 -55 45
-41 30 -18 22 66 -26z m-3292 -18 c52 -24 64 -33 50 -38 -11 -3 -30 -2 -43 3
-29 10 -31 8 -40 -34 l-7 -33 -42 64 c-23 36 -42 71 -42 78 0 15 18 9 124 -40z
m-3675 -11 c-3 -4 -122 -46 -201 -73 -13 -4 -18 0 -18 16 0 13 6 21 18 21 9 0
51 9 92 19 72 19 118 26 109 17z m2679 -240 c75 -70 80 -88 28 -88 -14 0 -24
-4 -21 -8 2 -3 -3 -7 -11 -7 -10 0 -11 4 -4 11 14 14 12 56 -3 56 -7 0 -19 -6
-26 -12 -10 -11 -11 -9 -5 7 l7 20 -16 -20 c-9 -11 -17 -28 -17 -37 0 -38 -18
-22 -58 55 -24 45 -52 93 -63 107 l-20 25 7 -35 c3 -19 17 -57 31 -85 21 -45
22 -47 3 -25 l-20 25 2 -30 c3 -27 1 -30 -24 -27 -28 3 -38 -11 -17 -24 8 -4
7 -9 -2 -15 -11 -6 -11 -11 -1 -21 14 -14 16 -32 3 -24 -10 6 -22 -30 -13 -39
3 -3 6 -14 7 -25 2 -19 1 -19 -29 -2 -29 17 -31 22 -28 68 2 27 9 90 17 139 8
50 17 127 21 172 l6 82 87 -87 c47 -48 119 -118 159 -156z m882 174 c16 -35
26 -68 24 -72 -2 -4 -18 -2 -35 4 -25 8 -33 7 -49 -7 -11 -10 -20 -21 -20 -24
0 -3 27 -19 61 -36 68 -33 88 -52 43 -41 -60 15 -114 45 -114 63 -1 31 44 183
53 180 5 -1 21 -31 37 -67z m1640 43 c0 -21 -64 -97 -107 -127 l-52 -36 -35
62 c-56 100 -56 98 0 99 27 0 69 6 94 13 41 11 100 4 100 -11z m-4133 -9 c5
-15 -24 -44 -43 -44 -21 0 -29 27 -13 46 14 17 50 15 56 -2z m3456 -11 c6 -32
-6 -43 -44 -43 -21 0 -28 6 -33 27 -8 30 5 43 45 43 21 0 28 -6 32 -27z m867
3 l35 -13 -47 -7 c-53 -8 -95 -37 -112 -77 l-11 -27 -29 25 -29 24 20 27 c23
32 79 62 113 61 14 0 41 -6 60 -13z m-988 -8 c22 -18 35 -63 17 -56 -8 3 -31
11 -51 19 -43 15 -48 26 -15 39 30 12 31 12 49 -2z m1068 8 c0 -2 -7 -7 -16
-10 -8 -3 -12 -2 -9 4 6 10 25 14 25 6z m-4585 -26 c8 -13 -48 -40 -140 -66
-44 -12 -108 -33 -142 -45 -49 -19 -65 -21 -74 -12 -16 16 45 44 206 94 135
41 141 43 150 29z m3449 -41 c95 -27 115 -30 147 -20 56 17 75 14 88 -15 6
-15 10 -27 9 -28 -2 -1 -24 -11 -50 -23 -29 -14 -53 -34 -62 -51 -29 -56 13
-57 69 -2 22 22 45 40 52 40 6 0 16 -13 22 -30 5 -16 7 -30 4 -30 -3 0 1 -8 9
-17 8 -10 20 -33 26 -51 11 -31 10 -33 -8 -27 -24 7 -62 -3 -55 -15 5 -9 -28
-20 -63 -20 -30 0 -141 -31 -310 -86 -73 -24 -135 -44 -138 -44 -2 0 -4 6 -4
13 0 6 -16 46 -35 87 l-34 75 62 23 c34 13 69 30 77 39 14 14 10 15 -35 8 -27
-4 -65 -13 -82 -20 -30 -13 -34 -12 -48 8 -8 12 -15 27 -15 34 0 12 64 33 161
53 31 6 65 17 75 25 37 27 -9 26 -111 -1 -120 -32 -148 -35 -153 -13 -4 22 88
56 173 65 60 6 65 9 74 37 8 22 15 28 28 24 10 -3 67 -20 127 -38z m-4265 16
c-3 -2 -52 -20 -110 -39 -57 -19 -112 -37 -121 -41 -13 -5 -18 -2 -18 12 0 15
18 23 98 45 88 24 163 35 151 23z m3896 -20 c-35 -16 -62 -19 -69 -6 -10 15 6
21 53 20 l46 -1 -30 -13z m884 -2 c-3 -34 1 -43 19 -44 14 0 14 -2 -3 -9 -11
-5 -15 -9 -10 -10 12 -1 -36 -29 -51 -30 -12 0 -49 68 -42 76 4 3 74 31 86 33
2 1 2 -7 1 -16z m599 -22 c10 -6 -8 -16 -62 -34 -63 -21 -76 -23 -76 -11 0 18
19 57 33 65 10 7 81 -7 105 -20z m-3108 -26 c0 -104 -44 -130 -325 -194 -88
-20 -91 -20 -160 -2 -40 10 -63 21 -55 24 27 11 214 64 286 81 89 22 126 44
159 96 22 34 30 40 60 40 35 0 35 0 35 -45z m930 25 c0 -10 -31 -20 -203 -64
-105 -28 -137 -32 -137 -17 0 9 93 36 240 70 104 24 100 23 100 11z m-2042
-42 c-4 -12 -49 -28 -218 -79 -58 -17 -118 -37 -135 -44 -52 -23 -127 -37
-138 -26 -18 18 43 43 255 101 232 64 241 65 236 48z m3980 -18 c34 -21 43
-37 16 -26 -13 5 -14 4 -5 -7 9 -11 -1 -14 -54 -16 -54 -2 -66 1 -72 15 -8 21
29 54 61 54 11 0 36 -9 54 -20z m-4978 -28 c0 -9 -56 -34 -133 -58 -44 -13
-60 -15 -69 -6 -16 16 -11 20 78 46 83 25 124 31 124 18z m4655 -12 c-3 -5
-12 -10 -18 -10 -7 0 -6 4 3 10 19 12 23 12 15 0z m-1475 -77 c-16 -24 -40
-30 -40 -10 0 7 -8 3 -17 -8 -12 -15 -14 -16 -10 -3 3 9 0 19 -9 22 -20 8 -18
26 4 26 9 0 23 9 30 20 12 19 12 19 35 -3 21 -20 21 -24 7 -44z m1437 60 c-4
-3 1 -15 10 -27 18 -20 18 -20 -8 0 -18 12 -23 21 -15 26 14 10 21 10 13 1z
m-1252 -53 c21 -14 25 -20 13 -20 -23 0 -68 21 -68 32 0 14 24 9 55 -12z
m-3158 -5 c10 -8 26 -20 36 -28 12 -8 16 -19 11 -31 -6 -15 -14 -17 -68 -11
-33 4 -64 9 -68 12 -8 4 52 73 64 73 4 0 16 -7 25 -15z m2744 -32 c47 -107 73
-203 50 -189 -5 4 -21 38 -36 76 -36 94 -54 115 -90 106 -25 -6 -27 -10 -22
-41 4 -27 29 -95 64 -172 3 -7 -1 -13 -9 -13 -20 0 -125 226 -112 239 3 3 33
13 67 23 34 9 63 17 64 17 1 1 12 -20 24 -46z m678 16 c6 -18 11 -33 11 -34 0
-2 -12 -6 -26 -9 -39 -10 -50 6 -28 43 23 39 29 39 43 0z m-2320 -119 c0 -33
-1 -34 -10 -10 -11 28 -38 60 -51 60 -18 0 -7 -50 18 -79 31 -37 30 -37 -32
-11 l-47 20 6 59 c11 98 13 99 68 45 41 -40 49 -54 48 -84z m3563 77 c29 -25
36 -37 32 -54 -8 -29 -15 -29 -42 0 -22 24 -47 87 -34 87 4 -1 24 -15 44 -33z
m306 24 c10 -6 4 -14 -23 -31 -26 -16 -40 -19 -47 -12 -16 16 -3 40 24 45 13
2 25 5 28 5 3 1 11 -2 18 -7z m-5464 -26 c21 -14 24 -14 29 0 9 22 37 19 37
-5 0 -16 7 -20 30 -20 20 0 30 -5 30 -15 0 -8 -9 -15 -20 -15 -22 0 -25 -12
-9 -42 14 -26 7 -31 -24 -17 -23 10 -28 9 -51 -17 l-25 -29 -1 38 c0 34 -2 37
-30 37 -37 0 -39 12 -5 30 15 8 23 19 20 27 -3 7 -8 20 -11 28 -8 19 1 19 30
0z m1347 -18 c-9 -22 -8 -25 6 -20 11 4 14 2 11 -8 -3 -8 -18 -14 -38 -14 -25
0 -35 5 -41 24 -8 20 -7 23 10 18 12 -3 27 3 37 14 22 24 27 19 15 -14z m1009
25 c0 -13 -170 -62 -214 -62 -57 0 -37 12 72 42 102 28 142 33 142 20z m4379
-50 c55 -33 98 -62 94 -66 -4 -4 0 -4 8 -1 9 3 74 -26 155 -70 234 -129 252
-141 263 -183 13 -45 4 -52 -66 -52 -58 0 -60 -3 -39 -62 14 -38 13 -38 -13
-40 -14 0 -32 -2 -39 -2 -7 -1 -16 -7 -21 -14 -5 -9 -49 38 -143 155 -151 188
-157 198 -153 233 2 14 4 29 4 33 1 5 6 5 12 1 8 -4 7 -9 -2 -15 -10 -6 -10
-9 -2 -9 6 0 14 4 17 9 8 12 -18 32 -35 28 -8 -2 -11 -2 -6 0 14 9 7 23 -12
23 -10 0 -29 8 -42 19 -13 10 -42 30 -63 45 -69 46 -20 28 83 -32z m-6048 23
c90 -32 169 -76 169 -95 0 -26 -19 -38 -80 -51 -30 -6 -85 -24 -122 -39 -42
-17 -71 -24 -74 -18 -21 33 3 164 37 205 14 16 17 16 70 -2z m480 -32 c9 -9
-13 -12 -85 -15 -53 -2 -96 0 -96 3 0 27 156 37 181 12z m1809 3 c0 -8 -27
-37 -60 -66 -62 -54 -76 -50 -45 11 25 47 105 89 105 55z m1757 -2 c2 -7 -9
-15 -24 -18 -34 -8 -158 -45 -308 -91 -60 -19 -132 -40 -160 -46 -27 -6 -54
-16 -59 -20 -16 -14 -26 -10 -26 10 0 15 13 24 58 37 341 101 489 142 501 141
8 -1 16 -7 18 -13z m563 -14 c0 -10 -8 -26 -17 -36 -10 -9 -23 -31 -29 -48
l-12 -31 -7 27 c-5 21 0 39 20 73 26 45 45 51 45 15z m-4937 -57 c-47 -77 -68
-107 -88 -124 -53 -45 -71 -64 -82 -87 -12 -25 -13 -22 -10 29 4 71 43 153
102 214 38 39 50 45 84 45 l41 0 -47 -77z m124 55 c5 -7 8 -19 7 -25 -1 -7 -2
-18 -3 -23 0 -6 -26 -36 -56 -67 -65 -67 -70 -55 -21 53 34 72 53 88 73 62z
m1273 2 c0 -5 -12 -35 -27 -67 -18 -40 -27 -52 -30 -40 -8 32 -43 -9 -44 -52
l-1 -36 -11 34 c-9 29 -7 40 13 78 31 59 100 117 100 83z m3369 -30 c32 -16
51 -37 51 -55 0 -10 -67 20 -87 38 -44 39 -25 48 36 17z m-1607 -15 c1 -14
-50 -41 -90 -49 -54 -10 -37 24 23 45 53 19 66 19 67 4z m-2451 -16 c58 -13
51 -29 -13 -29 -54 0 -113 -27 -127 -57 -16 -36 -26 -21 -12 19 28 81 48 89
152 67z m2649 -4 c10 -13 9 -19 -6 -36 -22 -24 -57 -21 -62 5 -4 20 21 46 44
46 6 0 17 -7 24 -15z m-1369 -20 c66 -24 129 -86 129 -129 -1 -18 -3 -17 -17
9 -23 44 -44 65 -85 86 -42 21 -136 26 -171 8 -35 -18 -77 -61 -77 -78 0 -11
10 -5 28 16 59 69 165 72 234 6 21 -20 25 -29 16 -40 -9 -11 -7 -12 8 -7 17 5
17 4 -1 -7 -24 -15 -75 -71 -75 -82 0 -5 -4 -6 -9 -2 -5 3 -12 1 -16 -5 -9
-14 -21 -12 -39 5 -8 9 -12 23 -9 31 4 11 0 15 -13 13 -23 -4 -64 21 -64 38 0
7 -7 13 -15 13 -23 0 -19 -7 33 -68 28 -33 40 -53 28 -49 -14 6 -17 3 -12 -8
3 -8 1 -15 -5 -15 -6 0 -7 -4 -4 -10 3 -5 2 -10 -4 -10 -5 0 -13 5 -16 10 -7
12 -55 14 -55 3 1 -21 19 -35 38 -29 13 4 22 1 26 -9 3 -10 2 -13 -5 -10 -5 4
-16 2 -23 -4 -15 -13 -69 39 -85 82 -36 94 18 208 116 242 50 19 90 18 144 0z
m-823 -42 c55 -31 53 -43 -5 -31 -52 11 -107 44 -98 59 9 13 52 1 103 -28z
m3238 2 c-26 -13 -53 -28 -59 -34 -17 -17 -39 -13 -35 6 4 19 79 52 118 52 20
-1 16 -5 -24 -24z m-738 -29 c1 -17 -3 -26 -12 -26 -8 0 -17 -8 -21 -17 -6
-15 -9 -13 -21 12 -7 17 -13 24 -14 18 0 -21 -20 -15 -20 6 0 25 20 38 30 21
10 -16 33 -2 26 16 -4 11 -1 12 12 5 10 -5 18 -21 20 -35z m1151 -2 c24 -22 7
-25 -39 -9 -46 16 -70 32 -70 46 0 11 91 -20 109 -37z m-4404 7 c-3 -5 -22
-15 -43 -21 -20 -7 -56 -23 -79 -35 -23 -13 -44 -20 -47 -17 -17 16 0 29 57
45 34 10 73 22 87 27 14 5 26 9 28 9 2 1 1 -3 -3 -8z m1151 -18 c-4 -9 2 -22
11 -30 17 -13 16 -14 -9 -10 -17 2 -29 -1 -32 -9 -8 -22 -34 -16 -39 9 -4 22
-4 22 -14 -3 -10 -23 -12 -23 -18 -7 -6 14 0 25 20 43 32 27 37 28 53 12 9 -9
12 -8 12 6 0 10 5 14 11 11 6 -4 8 -14 5 -22z m3064 7 c0 -6 -8 -13 -17 -17
-33 -12 -120 -92 -133 -123 -10 -23 -10 -47 -2 -102 6 -40 9 -74 7 -77 -10 -9
-38 76 -43 126 -3 41 0 59 17 86 39 63 171 145 171 107z m-4496 -28 c-10 -10
-35 -29 -54 -42 -57 -40 -70 -53 -70 -72 0 -9 -5 -20 -11 -23 -7 -5 -9 7 -7
35 3 41 5 44 78 85 76 43 100 50 64 17z m886 -21 c42 -25 81 -73 69 -86 -3 -3
-29 0 -58 6 -53 11 -64 22 -91 95 -9 23 -8 25 12 19 13 -4 43 -19 68 -34z
m1655 3 c-21 -19 -50 -37 -63 -41 -26 -6 -48 9 -37 27 10 17 85 49 115 49 24
0 23 -1 -15 -35z m435 7 l35 -29 -40 0 c-55 0 -166 -19 -223 -38 -26 -9 -66
-34 -91 -55 -62 -55 -71 -52 -51 22 15 52 34 65 150 97 140 40 176 40 220 3z
m-2175 -133 c28 -83 52 -158 54 -166 4 -18 -202 89 -240 125 l-27 25 -53 -101
c-30 -56 -57 -101 -62 -101 -4 0 -37 14 -72 32 -61 29 -65 33 -65 65 0 44 -13
42 -33 -4 -8 -21 -31 -75 -50 -121 -19 -46 -37 -85 -40 -88 -3 -3 -10 3 -16
15 -20 37 -99 281 -93 285 4 2 52 16 107 31 183 49 519 146 524 150 12 12 19
-5 66 -147z m3241 135 c3 -10 16 -46 29 -80 13 -35 19 -63 14 -63 -5 0 -27 36
-49 80 -37 74 -39 80 -20 80 11 0 23 -8 26 -17z m-720 -38 c18 -43 18 -45 -3
-45 -19 0 -174 -38 -180 -44 -2 -2 8 -27 22 -57 82 -177 -59 -379 -266 -379
-76 0 -165 27 -217 66 -40 31 -88 103 -104 157 -12 41 -23 47 -33 17 -7 -21
42 -172 81 -254 13 -27 21 -53 18 -57 -15 -25 -34 2 -83 119 -29 70 -55 129
-57 131 -1 1 -25 -4 -53 -14 -50 -16 -50 -16 -39 -48 5 -18 13 -41 18 -52 14
-35 20 -57 26 -94 3 -20 14 -48 24 -63 16 -22 17 -27 5 -32 -16 -6 -21 2 -60
94 -48 113 -75 194 -67 201 4 3 37 14 75 24 43 11 67 22 67 31 0 24 -23 25
-91 4 -35 -11 -67 -20 -71 -20 -7 0 -32 70 -26 74 1 2 84 27 183 55 99 29 221
70 272 92 71 30 105 39 149 39 50 0 138 20 324 75 65 20 70 19 86 -20z m-2206
0 c-28 -16 -76 -20 -85 -6 -7 12 18 18 70 19 40 1 40 1 15 -13z m3575 -15 c16
-6 17 -9 5 -13 -8 -2 -31 -9 -51 -16 -43 -14 -59 -14 -59 -1 0 12 49 39 70 39
8 0 24 -4 35 -9z m-902 -17 c7 -6 -44 -29 -89 -40 -33 -8 -38 14 -7 31 29 16
85 21 96 9z m-1878 -33 c-10 -11 -20 -18 -23 -15 -3 3 3 14 13 25 10 11 20 18
23 15 3 -3 -3 -14 -13 -25z m-705 -9 c0 -13 -89 -41 -95 -30 -4 5 0 11 7 13 7
3 27 9 43 14 39 13 45 14 45 3z m-223 -64 c11 -7 56 -119 67 -169 6 -26 5 -27
-26 -21 -42 8 -89 31 -105 52 -12 16 -73 175 -73 191 0 7 107 -34 137 -53z
m2450 -97 c34 -85 63 -158 63 -162 0 -18 -30 6 -38 30 -36 95 -114 257 -125
255 -6 0 -37 -8 -67 -16 -40 -11 -60 -12 -75 -4 -12 6 -15 12 -8 14 66 22 143
41 162 40 22 -2 32 -19 88 -157z m491 124 c-4 -24 -82 -64 -125 -64 -48 0 -41
13 18 33 28 10 61 29 73 41 23 24 40 19 34 -10z m-1988 22 c0 -11 -19 -15 -25
-6 -3 5 1 10 9 10 9 0 16 -2 16 -4z m255 -10 c19 -14 19 -15 1 -35 -21 -24
-46 -27 -64 -9 -16 16 -15 23 4 42 19 20 35 20 59 2z m-431 -21 c-9 -14 -19
-23 -22 -20 -5 4 26 45 35 45 2 0 -4 -11 -13 -25z m146 1 c0 -3 -4 -8 -10 -11
-5 -3 -10 -1 -10 4 0 6 5 11 10 11 6 0 10 -2 10 -4z m-95 -26 c4 -6 3 -9 -2
-8 -4 1 -19 -3 -33 -10 l-25 -13 24 20 c27 24 28 24 36 11z m2758 -22 c2 -18
0 -35 -5 -37 -6 -2 -18 -11 -28 -21 -15 -15 -18 -16 -28 -1 -9 14 -11 14 -17
-4 -11 -29 -69 -114 -78 -115 -20 0 -18 37 3 77 24 46 113 133 135 133 7 0 15
-15 18 -32z m-977 4 c18 -11 118 -252 109 -261 -9 -9 -22 12 -55 89 -48 111
-68 140 -101 147 -37 7 -37 20 -1 26 15 2 29 5 32 5 3 1 10 -2 16 -6z m547
-13 c30 -16 57 -50 57 -74 0 -15 -3 -16 -9 -7 -7 11 -9 11 -14 -1 -6 -15 -84
-57 -108 -57 -12 0 -12 -2 1 -10 13 -8 13 -10 -2 -10 -30 0 -67 19 -78 40 -16
30 -4 68 32 102 33 30 81 37 121 17z m-2847 -35 c-83 -33 -135 -39 -109 -13
19 19 116 48 158 48 37 0 34 -3 -49 -35z m239 -29 c37 -36 33 -76 -10 -114
-41 -36 -72 -46 -122 -38 -44 8 -61 23 -69 63 -8 42 19 71 86 94 72 25 86 25
115 -5z m525 3 c0 -18 -11 -31 -40 -51 -32 -22 -50 -21 -50 3 0 12 13 27 38
39 44 24 52 25 52 9z m-2111 -29 c15 -18 20 -19 44 -8 32 14 50 3 24 -15 -22
-17 -22 -29 3 -51 30 -27 26 -47 -6 -35 -36 14 -38 13 -52 -22 -6 -17 -14 -29
-17 -27 -4 5 -12 38 -14 62 -1 4 -14 7 -31 7 -38 0 -41 26 -5 40 19 7 25 17
25 40 0 35 6 37 29 9z m881 -47 c30 -17 56 -34 57 -39 2 -5 -36 -21 -85 -36
-51 -15 -99 -37 -114 -50 l-27 -25 -19 22 -20 21 50 87 50 88 27 -19 c14 -10
51 -32 81 -49z m3020 30 c0 -10 -4 -22 -10 -28 -10 -10 69 -206 105 -260 14
-22 14 -25 0 -30 -9 -4 -17 -5 -19 -3 -8 10 -86 200 -97 237 -7 24 -20 44 -31
47 -18 6 -25 35 -11 48 3 4 19 7 35 7 20 0 28 -5 28 -18z m-3464 -37 c20 -14
43 -25 50 -25 22 0 17 -26 -18 -95 -26 -53 -37 -65 -62 -71 -51 -11 -84 -32
-88 -56 -3 -18 -7 -13 -23 26 l-19 49 22 36 c12 20 37 64 54 99 18 34 36 62
40 62 4 0 24 -11 44 -25z m1474 13 c0 -7 -27 -21 -60 -32 -33 -10 -60 -21 -60
-25 0 -3 12 -23 26 -44 17 -25 31 -36 42 -33 42 11 102 17 102 9 0 -5 -20 -15
-44 -22 -82 -24 -82 -23 -46 -136 17 -55 33 -106 35 -113 11 -32 -19 5 -37 47
-27 61 -128 331 -128 342 0 4 26 10 58 12 31 2 69 4 85 5 16 1 27 -3 27 -10z
m387 -105 c17 -54 44 -125 59 -158 15 -33 28 -62 29 -65 0 -3 7 -27 14 -53 21
-71 7 -67 -28 10 -38 81 -141 339 -141 353 0 6 8 10 18 10 14 0 25 -22 49 -97z
m1811 30 c39 -12 50 -18 35 -21 -28 -4 -103 16 -103 28 0 13 3 13 68 -7z
m-3535 -16 c3 -8 -1 -14 -8 -14 -7 0 -11 6 -8 14 3 7 6 13 8 13 2 0 5 -6 8
-13z m756 -31 c14 -13 36 -27 48 -30 12 -4 37 -24 57 -46 32 -35 34 -42 25
-72 -19 -66 -124 -128 -217 -128 -38 0 -50 5 -83 39 l-39 39 0 -27 c0 -52 58
-101 120 -101 16 0 30 -2 30 -5 0 -2 9 -27 20 -54 l19 -50 -22 7 c-39 14 -120
9 -125 -8 -5 -13 -3 -13 14 0 18 14 18 14 5 -3 -13 -17 -15 -17 -38 5 -64 60
-88 135 -68 207 7 25 22 77 33 114 11 38 30 80 43 94 53 57 129 65 178 19z
m2231 -15 c0 -22 -66 -52 -120 -54 -60 -3 -43 20 32 46 90 31 88 31 88 8z
m-1909 -1 c16 0 10 -38 -7 -44 -27 -10 -52 -7 -58 9 -7 19 22 48 41 41 8 -3
19 -6 24 -6z m2461 -21 c39 -11 68 -22 66 -23 -1 -2 -31 -6 -65 -9 -64 -7 -93
5 -93 39 0 19 10 18 92 -7z m-1994 -87 c-36 -37 -78 -91 -94 -121 -39 -73 -43
-40 -4 40 33 70 67 109 120 144 57 37 47 9 -22 -63z m1629 10 c-1 -11 -25 -48
-53 -83 -28 -35 -59 -79 -69 -97 -11 -18 -24 -31 -30 -29 -12 4 -19 51 -11 83
8 30 60 90 106 120 43 28 61 30 57 6z m-2179 -16 c35 -18 78 -65 87 -94 6 -22
5 -23 -32 -17 -87 15 -113 36 -113 94 0 35 15 39 58 17z m1816 -88 c10 -29 24
-67 32 -85 16 -36 29 -93 21 -93 -3 0 -15 16 -27 35 -18 30 -24 33 -41 24 -19
-10 -86 -32 -236 -79 -40 -13 -73 -26 -73 -31 0 -4 -20 -11 -45 -15 -25 -3
-45 -10 -45 -13 0 -4 -16 -13 -36 -19 -33 -10 -36 -9 -46 14 -6 13 -9 26 -7
28 2 2 72 23 154 46 194 54 345 100 345 104 0 2 -7 23 -16 47 -9 24 -22 64
-30 88 l-14 45 23 -22 c13 -12 31 -45 41 -74z m-2410 65 c9 -24 -9 -39 -29
-23 -10 8 -15 9 -15 1 0 -6 -7 -11 -15 -11 -16 0 -19 9 -9 34 8 22 60 21 68
-1z m-175 -139 c48 -135 51 -164 18 -164 -64 0 -111 29 -142 89 -15 30 -20 32
-48 27 -89 -17 -107 -18 -107 -8 0 12 137 55 154 49 6 -3 19 -28 30 -56 20
-57 46 -81 88 -81 25 0 26 2 17 33 -20 70 -74 197 -84 197 -6 0 -75 -18 -154
-41 -79 -22 -150 -38 -158 -34 -9 3 -13 8 -10 11 8 8 309 92 333 93 19 1 28
-15 63 -115z m3025 108 c7 -11 -32 -115 -47 -127 -7 -5 -16 -18 -20 -28 -11
-28 -27 -10 -20 23 3 17 0 36 -6 44 -10 12 -4 22 31 55 43 42 53 47 62 33z
m-1087 -41 c-9 -26 -5 -43 32 -138 36 -90 66 -203 55 -203 -7 0 -144 332 -144
350 0 5 12 11 28 13 15 2 30 5 34 6 3 0 1 -12 -5 -28z m-1127 -69 c35 -11 66
-24 68 -31 2 -6 -1 -11 -8 -11 -6 0 -8 -5 -5 -10 4 -6 -7 -13 -24 -16 -17 -4
-31 -10 -31 -15 0 -5 -6 -6 -14 -3 -9 4 -17 -7 -24 -33 l-10 -38 -1 38 c-1 53
-13 69 -71 107 -54 35 -59 44 -34 71 16 17 18 17 53 -11 20 -15 65 -37 101
-48z m1044 43 c7 -19 -30 -44 -78 -52 -32 -5 -36 -3 -36 15 0 16 11 24 48 35
62 19 59 19 66 2z m306 8 c-2 -35 -117 -92 -140 -69 -21 21 -8 35 53 54 70 22
87 25 87 15z m-1515 -82 c40 -36 41 -40 25 -54 -10 -8 -34 -21 -54 -28 -26 -9
-35 -18 -31 -29 12 -30 -14 5 -44 60 l-30 55 42 17 c23 9 44 17 46 17 2 1 23
-17 46 -38z m825 4 c0 -8 -9 -15 -20 -15 -11 0 -20 7 -20 15 0 8 9 15 20 15
11 0 20 -7 20 -15z m-1280 -40 c15 -18 6 -33 -28 -46 -18 -7 -28 -6 -34 3 -11
18 -10 25 8 42 19 20 38 20 54 1z m2740 7 c0 -5 -9 -17 -21 -28 -21 -19 -21
-19 -8 9 12 26 29 37 29 19z m-1848 -32 c44 -13 78 -55 78 -100 0 -37 -10 -48
-69 -79 -54 -28 -101 -22 -131 16 -41 52 -19 131 44 159 38 16 33 16 78 4z
m282 -36 c40 -15 43 -162 5 -203 -10 -11 -19 -26 -19 -33 0 -9 -3 -9 -11 -1
-9 9 -8 33 1 93 14 92 13 94 -50 106 -33 7 -59 28 -60 48 0 8 107 0 134 -10z
m422 -33 c22 -11 32 -21 24 -21 -8 -1 -51 -3 -95 -6 -44 -3 -104 -9 -134 -14
-29 -5 -57 -7 -62 -4 -18 11 -8 35 19 45 85 33 186 33 248 0z m3034 13 c71
-21 130 -62 173 -121 19 -27 89 -157 156 -290 66 -133 135 -265 151 -294 17
-28 29 -54 26 -56 -8 -8 -167 -52 -211 -58 -39 -6 -41 -5 -67 39 l-27 45 -63
-65 c-111 -116 -265 -171 -410 -146 -87 15 -138 41 -194 98 -81 84 -106 211
-60 309 24 53 92 122 147 150 60 32 170 64 255 76 l83 12 -16 31 c-9 17 -23
37 -32 43 -75 58 -259 16 -392 -89 -28 -22 -56 -38 -62 -35 -21 8 -157 118
-157 127 0 5 26 32 58 60 70 63 208 132 317 159 102 25 251 27 325 5z m-4520
-82 c0 -5 -11 -19 -25 -32 -14 -13 -25 -31 -25 -39 0 -13 -2 -13 -9 -3 -5 8
-20 15 -35 15 -14 1 -26 3 -26 4 0 11 50 47 62 45 9 -2 19 2 23 7 7 13 35 15
35 3z m1491 -27 c29 -12 32 -21 6 -16 -5 1 -6 -3 -3 -8 4 -5 1 -13 -5 -17 -8
-4 -7 -9 2 -16 10 -7 8 -8 -6 -3 -11 4 -66 9 -123 12 -86 5 -102 8 -100 22 7
35 166 54 229 26z m-871 -51 c0 4 15 -5 34 -19 19 -15 56 -30 83 -35 l48 -8
-44 -1 c-31 -1 -60 8 -102 30 -32 17 -56 36 -53 41 3 5 12 4 20 -3 8 -6 14 -8
14 -5z m358 -34 c7 -11 11 -20 9 -20 -2 0 -12 9 -22 20 -10 11 -14 20 -9 20 5
0 15 -9 22 -20z m2687 -11 c41 -6 75 -16 75 -21 0 -5 -12 -48 -27 -97 l-26
-87 -106 0 c-80 1 -118 -3 -154 -17 -70 -28 -97 -76 -60 -112 14 -15 32 -16
142 -10 196 11 287 -12 362 -92 53 -55 72 -99 77 -180 4 -64 1 -79 -22 -127
-49 -99 -166 -185 -303 -221 -81 -22 -206 -29 -282 -16 -36 6 -66 9 -68 7 -2
-2 1 -15 6 -29 11 -29 13 -28 -198 -86 -83 -23 -75 -26 -123 48 l-21 34 -21
-29 c-83 -120 -235 -194 -396 -194 -78 0 -130 13 -182 46 -21 13 -38 21 -38
17 0 -3 13 -30 30 -59 l29 -52 -72 -30 c-210 -88 -410 -63 -527 65 -59 64 -83
113 -154 306 -30 82 -56 150 -58 152 -2 3 -28 -2 -58 -10 -30 -8 -55 -13 -56
-12 -4 5 -57 134 -64 157 -4 14 -11 32 -15 42 -5 13 4 19 50 29 31 7 59 18 61
24 3 6 -14 62 -36 124 -29 80 -37 116 -29 121 26 17 261 72 269 64 4 -5 24
-54 45 -110 20 -56 41 -107 46 -115 7 -12 26 -10 115 13 59 15 108 27 109 25
1 -1 18 -48 38 -104 l36 -103 -42 -10 c-167 -44 -172 -46 -169 -70 6 -41 98
-275 126 -318 31 -49 70 -72 126 -72 34 0 120 32 120 44 0 2 -7 23 -15 46 -31
88 -13 181 50 264 59 78 218 152 376 177 41 6 75 12 77 14 8 7 -31 66 -53 81
-49 32 -181 13 -286 -41 -19 -10 -57 -36 -86 -58 -29 -21 -58 -37 -65 -34 -7
3 -46 33 -86 67 -82 71 -83 65 9 136 140 107 315 167 494 167 154 1 245 -41
313 -144 17 -25 67 -129 110 -230 44 -101 98 -222 120 -269 39 -82 41 -84 51
-58 5 15 17 66 25 114 9 48 17 88 19 90 2 2 34 -2 72 -7 174 -27 367 60 292
132 -21 20 -29 21 -148 14 -138 -7 -234 7 -307 44 -76 39 -131 130 -132 217
-1 168 140 296 375 339 90 17 146 18 240 4z m-3194 -28 c62 -21 163 -70 157
-76 -2 -2 -45 9 -96 25 -51 17 -108 30 -127 30 -23 0 -35 5 -35 13 0 33 25 35
101 8z m969 9 c12 -8 11 -10 -5 -10 -12 0 -25 -4 -30 -9 -6 -4 -29 -13 -52
-18 -32 -8 -47 -8 -60 2 -20 15 -11 30 22 38 36 9 110 7 125 -3z m-550 -60 c0
-13 -74 -50 -100 -50 -34 0 -18 21 30 40 53 21 70 24 70 10z m-531 -566 c23
-64 40 -118 38 -120 -3 -3 -556 -154 -564 -154 -9 0 1 -46 34 -149 20 -64 38
-117 39 -119 1 -3 344 91 375 103 12 4 23 -19 53 -115 21 -67 36 -123 34 -125
-1 -2 -32 -11 -68 -20 -169 -43 -310 -89 -310 -101 0 -7 29 -104 65 -215 37
-111 64 -207 62 -213 -6 -15 -270 -91 -289 -84 -8 3 -26 43 -40 89 -110 353
-238 766 -293 948 -47 155 -48 170 -9 171 6 0 184 47 395 104 351 95 411 111
430 115 4 0 26 -51 48 -115z m773 -48 c101 -22 174 -62 254 -141 198 -195 205
-467 16 -653 -113 -112 -278 -176 -457 -176 -166 0 -289 49 -393 158 -144 150
-181 344 -98 510 38 75 74 118 147 178 136 110 354 161 531 124z m-4456 -932
c1 -16 -4 -32 -10 -36 -7 -5 -4 -8 7 -8 9 0 17 -6 17 -14 0 -15 -12 -20 -70
-31 -34 -6 -34 -5 -15 11 13 11 16 18 8 21 -7 2 -9 11 -6 19 3 9 -2 14 -16 14
-34 0 -24 18 22 39 52 24 62 22 63 -15z m9184 27 c0 -5 52 -63 115 -128 63
-65 114 -122 112 -128 -6 -18 -171 -125 -193 -125 -15 0 -53 30 -113 90 -104
104 -134 122 -40 24 65 -67 84 -92 76 -100 -8 -8 -241 216 -264 255 -54 91
-207 87 -297 -7 -54 -57 -36 -135 44 -189 39 -27 48 -28 46 -7 0 9 35 38 93
75 95 59 121 70 121 47 0 -7 54 -65 120 -128 66 -63 120 -119 120 -126 0 -17
-182 -134 -208 -134 -5 0 -35 34 -67 76 -56 75 -155 178 -163 170 -2 -3 15
-21 37 -41 44 -40 125 -154 116 -163 -3 -4 -40 31 -82 77 -42 45 -107 103
-145 128 -88 58 -102 79 -96 143 8 76 63 129 162 154 90 24 203 -4 221 -54 3
-8 14 -26 25 -40 17 -23 20 -24 32 -8 17 22 199 147 216 148 6 0 12 -4 12 -9z
m-9160 -129 c0 -6 -45 -33 -80 -48 -3 -2 -7 6 -7 17 -1 11 2 17 6 15 4 -3 17
1 27 9 20 15 54 20 54 7z m6 -69 c-3 -4 -6 -1 -6 6 0 8 -10 5 -29 -8 -16 -12
-34 -21 -40 -21 -22 0 -10 17 26 37 33 19 39 20 46 7 5 -9 6 -18 3 -21z m-86
-107 c0 -2 -7 -6 -15 -10 -8 -3 -15 -1 -15 4 0 6 7 10 15 10 8 0 15 -2 15 -4z
m0 -56 c0 -5 -7 -10 -15 -10 -8 0 -15 5 -15 10 0 6 7 10 15 10 8 0 15 -4 15
-10z m8675 -44 c86 -67 205 -203 205 -235 0 -12 -191 -141 -209 -141 -14 0
-35 21 -127 127 -33 36 -78 86 -101 108 l-43 42 107 71 c58 39 111 68 117 65
6 -3 29 -20 51 -37z m594 -593 c1 -21 -17 -15 -24 7 -9 27 6 50 16 24 4 -10 8
-25 8 -31z"/>
<path d="M3992 7695 c-76 -23 -141 -75 -173 -137 -10 -21 -19 -41 -19 -45 1
-4 10 9 20 29 25 47 81 102 127 123 24 12 63 17 122 18 96 1 169 -23 213 -70
12 -15 17 -23 9 -18 -7 4 -3 -6 10 -24 27 -37 34 -40 19 -8 -8 15 -4 13 12 -7
29 -38 46 -81 48 -126 l2 -35 15 34 c40 92 -48 221 -180 265 -57 19 -166 20
-225 1z"/>
<path d="M3865 7451 c-3 -6 -11 -9 -16 -6 -5 4 -9 1 -9 -4 0 -6 6 -11 14 -11
16 0 31 18 23 26 -3 3 -8 0 -12 -5z"/>
<path d="M3070 7164 c-77 -34 -102 -83 -75 -151 39 -99 205 -115 274 -27 30
39 28 94 -6 135 -48 57 -123 74 -193 43z m130 -29 c62 -32 78 -93 36 -138 -29
-32 -63 -41 -119 -34 -51 7 -97 52 -97 95 0 28 37 73 70 85 29 11 81 7 110 -8z"/>
<path d="M3105 7088 c-37 -21 -40 -49 -7 -75 37 -30 112 2 112 47 0 35 -63 52
-105 28z"/>
<path d="M5800 7084 c8 -10 15 -20 16 -22 1 -2 4 1 7 5 3 5 -4 15 -16 23 -21
12 -21 12 -7 -6z"/>
<path d="M4276 5695 c4 -8 8 -15 10 -15 2 0 4 7 4 15 0 8 -4 15 -10 15 -5 0
-7 -7 -4 -15z"/>
<path d="M4090 5640 c0 -5 5 -10 11 -10 5 0 7 5 4 10 -3 6 -8 10 -11 10 -2 0
-4 -4 -4 -10z"/>
<path d="M7190 6661 c0 -5 9 -7 20 -4 11 3 20 7 20 9 0 2 -9 4 -20 4 -11 0
-20 -4 -20 -9z"/>
<path d="M6770 6563 c-52 -15 -96 -27 -98 -29 -3 -2 45 -103 54 -112 6 -8 214
51 214 61 0 18 -53 107 -64 106 -6 0 -54 -12 -106 -26z m115 -34 c8 -25 13
-22 -62 -44 -67 -19 -93 -16 -93 13 0 14 13 23 53 34 74 22 95 22 102 -3z"/>
<path d="M6883 6389 c-74 -22 -87 -83 -36 -161 37 -54 75 -59 165 -21 45 19
51 34 38 84 -23 83 -89 122 -167 98z m89 -56 c20 -18 24 -63 6 -81 -7 -7 -26
-12 -43 -12 -26 0 -35 6 -50 34 -19 34 -19 36 0 55 22 25 62 27 87 4z"/>
<path d="M6992 6081 c5 -22 21 -22 48 -1 l25 20 -38 -2 c-27 -2 -37 -6 -35
-17z"/>
<path d="M6735 6159 c-4 -6 -5 -12 -2 -15 2 -3 7 2 10 11 7 17 1 20 -8 4z"/>
<path d="M6720 6056 c0 -9 5 -16 10 -16 6 0 10 4 10 9 0 6 -4 13 -10 16 -5 3
-10 -1 -10 -9z"/>
<path d="M6690 6020 c0 -5 5 -10 10 -10 6 0 10 5 10 10 0 6 -4 10 -10 10 -5 0
-10 -4 -10 -10z"/>
<path d="M9995 6220 c-3 -6 1 -7 9 -4 18 7 21 14 7 14 -6 0 -13 -4 -16 -10z"/>
<path d="M9958 6203 c7 -3 16 -2 19 1 4 3 -2 6 -13 5 -11 0 -14 -3 -6 -6z"/>
<path d="M10048 6133 c7 -3 16 -2 19 1 4 3 -2 6 -13 5 -11 0 -14 -3 -6 -6z"/>
<path d="M2200 5924 c-69 -19 -146 -39 -172 -44 -26 -5 -56 -15 -68 -22 -22
-14 -28 -43 -7 -35 6 2 89 23 182 46 235 58 258 65 263 79 7 21 -65 12 -198
-24z"/>
<path d="M7404 5654 c-8 -20 -14 -46 -12 -58 3 -17 7 -14 26 21 12 23 22 49
22 58 0 28 -21 16 -36 -21z"/>
<path d="M6030 5260 c-11 -7 -5 -8 20 -4 43 8 51 14 19 14 -13 0 -31 -5 -39
-10z"/>
<path d="M4942 5128 c-7 -7 -12 -17 -12 -24 0 -18 26 -35 43 -28 21 8 30 34
16 50 -14 17 -31 18 -47 2z"/>
<path d="M2520 5340 c-108 -27 -180 -78 -206 -145 -14 -37 -15 -52 -5 -91 30
-117 79 -174 151 -174 48 0 281 63 322 87 45 26 60 58 54 115 -5 47 -35 118
-65 152 -44 50 -167 78 -251 56z m120 -55 c10 -12 10 -15 -1 -16 -23 -1 -96
-22 -221 -63 -51 -16 -54 -15 -38 15 30 55 227 104 260 64z m56 -47 c-37 -21
-54 -41 -48 -56 3 -10 1 -13 -6 -8 -6 3 -13 2 -17 -4 -3 -5 -24 -10 -46 -10
-35 0 -39 3 -39 25 0 20 6 25 38 30 20 4 55 13 77 20 49 17 66 18 41 3z m-182
-70 c8 -33 7 -40 -5 -33 -14 9 -101 -4 -95 -14 3 -4 -5 -6 -17 -5 -12 1 -25 3
-29 3 -19 2 -6 41 15 46 126 29 124 29 131 3z m82 -54 c-3 -8 -2 -13 2 -10 4
3 13 -4 20 -15 11 -16 9 -19 -8 -19 -11 0 -28 9 -37 20 -9 11 -20 16 -23 11
-8 -13 -118 -61 -139 -61 -17 0 -31 18 -31 41 0 5 16 9 36 9 19 0 45 5 57 12
12 6 34 11 49 10 15 -1 29 2 33 8 3 5 15 10 27 10 14 0 18 -5 14 -16z m78 -56
c-9 -30 -12 -32 -121 -63 -88 -25 -96 -25 -119 -11 -13 9 -24 20 -24 25 0 11
118 41 162 41 18 1 47 7 63 15 42 19 47 18 39 -7z"/>
<path d="M2770 4958 c-330 -89 -354 -97 -338 -113 5 -6 427 101 436 109 5 6
-7 26 -16 25 -4 0 -41 -10 -82 -21z"/>
<path d="M6760 5140 c-13 -9 -13 -10 0 -10 13 0 13 -2 0 -11 -13 -9 -13 -10 1
-6 9 3 22 0 28 -6 8 -8 11 -7 11 6 0 9 -6 16 -12 15 -7 -2 -12 3 -10 10 2 14
1 15 -18 2z"/>
<path d="M6830 5090 c0 -5 9 -10 21 -10 11 0 17 5 14 10 -3 6 -13 10 -21 10
-8 0 -14 -4 -14 -10z"/>
<path d="M6754 5057 c-11 -12 -12 -17 -4 -11 8 6 22 13 30 16 9 3 10 7 3 11
-6 4 -19 -3 -29 -16z"/>
<path d="M6778 5044 c-17 -9 -25 -20 -22 -29 4 -8 10 -12 15 -9 5 3 6 10 3 16
-5 8 -1 9 10 5 9 -4 15 -3 11 2 -3 6 3 14 12 20 27 16 2 11 -29 -5z"/>
<path d="M6785 5000 c-3 -5 -2 -10 4 -10 5 0 13 5 16 10 3 6 2 10 -4 10 -5 0
-13 -4 -16 -10z"/>
<path d="M2030 4890 c8 -5 22 -10 30 -10 13 0 13 1 0 10 -8 5 -22 10 -30 10
-13 0 -13 -1 0 -10z"/>
<path d="M6500 4645 c0 -3 23 -16 51 -30 40 -21 54 -24 65 -14 24 20 16 29
-25 29 -22 0 -51 4 -65 10 -14 5 -26 7 -26 5z"/>
<path d="M6446 4524 c-18 -22 -52 -47 -92 -65 -78 -35 -83 -50 -11 -37 75 14
135 43 149 72 14 31 22 32 57 7 25 -18 63 -26 104 -23 23 3 22 22 -2 22 -10 0
-51 14 -89 30 -39 17 -75 30 -79 30 -4 0 -21 -16 -37 -36z"/>
<path d="M4366 4173 c6 -4 14 -15 17 -23 5 -11 6 -9 4 4 -1 11 -9 21 -17 23
-10 3 -11 2 -4 -4z"/>
<path d="M5449 4010 c-101 -30 -151 -149 -96 -231 12 -20 45 -46 77 -62 49
-26 63 -28 128 -24 61 3 80 9 114 33 102 72 121 175 49 253 -44 47 -51 37 -18
-29 28 -56 29 -63 18 -103 -19 -65 -105 -127 -178 -127 -47 0 -110 29 -142 63
-32 36 -38 102 -13 143 21 33 93 74 130 74 12 0 22 5 22 10 0 12 -53 12 -91 0z"/>
<path d="M5485 3952 c-40 -25 -54 -43 -61 -79 -13 -64 82 -124 161 -102 42 12
85 61 85 98 0 79 -110 128 -185 83z m118 -41 c25 -25 -44 -91 -96 -91 -29 0
-42 15 -46 53 -2 23 3 30 31 42 34 16 94 13 111 -4z"/>
<path d="M4074 3855 c-18 -15 -18 -15 -1 -29 30 -23 78 4 55 31 -14 17 -30 16
-54 -2z"/>
<path d="M3941 3627 c-14 -40 -54 -67 -103 -67 -23 -1 -22 -1 5 -25 l28 -25
40 20 c49 26 66 57 52 102 l-9 33 -13 -38z"/>
<path d="M4404 3265 c-20 -30 -11 -58 23 -74 23 -10 30 -9 52 7 33 24 38 48
15 73 -25 27 -70 25 -90 -6z"/>
<path d="M8165 2806 c-133 -51 -195 -93 -197 -132 -5 -72 43 -110 125 -101 88
11 191 89 189 146 -1 30 -37 111 -50 111 -4 -1 -34 -11 -67 -24z"/>
<path d="M6413 2340 c-80 -28 -177 -77 -197 -98 -9 -11 -19 -35 -22 -54 -5
-27 -1 -40 19 -64 23 -26 31 -29 89 -29 51 0 72 6 110 28 58 34 98 84 98 123
0 25 -34 115 -42 113 -2 0 -26 -9 -55 -19z"/>
<path d="M4562 2119 c-98 -38 -152 -115 -152 -216 1 -137 95 -232 240 -241 81
-5 134 9 196 51 65 43 98 102 97 176 -2 187 -193 302 -381 230z"/>
<path d="M3590 10129 c-74 -60 -140 -116 -145 -123 -8 -10 -36 -6 -145 25 -74
22 -142 39 -151 39 -44 0 22 -109 81 -134 19 -8 29 -15 23 -15 -7 -1 -13 -5
-13 -11 0 -5 13 -7 30 -3 32 6 43 -12 13 -20 -10 -3 -1 -5 20 -6 20 0 37 -5
37 -9 0 -4 13 -9 29 -10 16 -1 44 -8 61 -16 29 -12 31 -15 15 -23 -13 -8 -3
-9 36 -6 42 3 51 2 39 -7 -12 -9 -8 -11 17 -6 25 4 42 -1 69 -19 20 -14 41
-25 45 -25 5 0 9 -7 9 -15 0 -8 7 -15 16 -15 8 0 13 -4 10 -8 -4 -7 12 -11 57
-12 9 -1 15 -5 12 -9 -2 -5 15 -12 40 -16 25 -3 43 -10 40 -15 -2 -4 5 -11 18
-14 l22 -6 -25 -20 -25 -21 60 7 c33 3 83 12 110 20 111 29 237 84 157 68 -50
-10 -38 3 21 21 84 27 85 27 52 35 -23 6 -25 8 -8 9 12 0 25 5 28 11 3 5 0 7
-8 4 -8 -3 -18 -1 -21 5 -4 5 18 15 49 22 31 7 63 18 73 26 15 11 11 12 -28 8
l-45 -5 48 22 c26 13 47 27 47 31 0 5 -4 5 -10 2 -5 -3 -10 -1 -10 4 0 6 4 11
9 11 4 0 24 11 43 24 19 13 48 28 64 34 l29 10 -30 1 c-39 2 -19 16 45 33 44
12 45 12 15 18 -30 6 -30 6 14 20 40 13 42 15 20 20 -21 5 -17 10 40 37 35 17
57 33 50 35 -8 3 4 11 26 18 30 10 35 15 22 19 -13 5 -5 13 35 34 l53 27 -151
0 c-145 0 -151 -1 -184 -25 -82 -61 -242 -183 -364 -278 -153 -121 -214 -160
-240 -153 -12 3 -64 28 -115 56 -51 28 -95 49 -97 47 -3 -2 23 -18 55 -36 33
-17 64 -37 67 -43 4 -7 -25 6 -65 28 -40 22 -72 44 -71 48 1 5 -27 27 -62 49
-35 22 -65 42 -67 44 -9 6 38 48 153 136 180 139 167 127 126 126 -29 0 -56
-18 -170 -110z m-405 -79 c13 -6 15 -9 5 -9 -8 0 -22 4 -30 9 -18 12 -2 12 25
0z m125 -40 c18 -12 2 -12 -25 0 -13 6 -15 9 -5 9 8 0 22 -4 30 -9z"/>
<path d="M3802 10187 c-31 -29 -97 -84 -147 -122 -104 -80 -112 -89 -85 -93
20 -3 147 56 177 83 10 9 44 36 75 59 31 24 78 62 104 84 l47 42 -57 0 c-54 0
-58 -2 -114 -53z"/>
<path d="M5405 10230 c-13 -5 -14 -9 -5 -9 8 0 24 4 35 9 13 5 14 9 5 9 -8 0
-24 -4 -35 -9z"/>
<path d="M8495 10198 c-11 -60 -11 -80 -3 -105 6 -17 4 -23 -7 -23 -8 0 -15 5
-15 12 0 6 -3 9 -6 5 -8 -8 48 -127 82 -174 26 -35 24 -34 -24 11 -45 44 -52
47 -58 31 -14 -36 63 -162 162 -262 49 -51 95 -93 101 -93 5 0 22 -11 37 -25
15 -14 33 -25 40 -25 7 0 21 -8 32 -18 11 -10 25 -17 32 -14 6 2 12 -1 12 -7
0 -6 -8 -11 -17 -11 -15 0 -15 -2 -4 -9 11 -7 7 -11 -15 -14 -16 -3 0 -5 36
-4 46 1 64 -2 63 -11 -4 -16 14 -16 20 1 4 9 6 9 6 0 1 -7 -11 -19 -26 -28
l-28 -16 27 5 c14 3 34 9 45 12 10 3 14 2 8 -3 -6 -4 -11 -15 -10 -23 0 -19
45 -26 55 -10 5 8 10 1 15 -19 4 -18 13 -31 22 -31 9 0 21 -8 28 -17 11 -15
17 -15 39 -5 14 6 26 8 26 3 0 -11 -56 -32 -64 -24 -3 3 -12 -2 -21 -10 -14
-15 -12 -16 20 -12 20 3 44 9 54 15 11 5 30 6 47 0 16 -4 22 -9 13 -9 -19 -1
-21 -31 -2 -31 17 0 17 -20 1 -21 -57 -4 -148 -29 -148 -42 0 -8 34 -4 102 12
26 6 39 5 42 -3 3 -7 5 -7 5 2 1 19 17 14 18 -7 1 -10 -8 -23 -20 -29 -21 -10
-21 -11 6 -11 l27 -1 1 78 2 77 9 -60 c23 -151 50 -268 77 -334 79 -194 243
-395 466 -570 93 -73 109 -88 76 -71 -90 46 -209 137 -301 229 -58 58 -108
104 -112 103 -5 -1 -8 6 -8 16 0 11 -9 27 -20 37 -50 45 -168 293 -171 358 -1
20 -2 20 -8 -3 -4 -15 -14 -24 -22 -22 -18 3 -19 1 -24 -96 -4 -67 -2 -72 12
-60 15 12 15 11 5 -9 -15 -28 -15 -36 0 -27 8 5 9 2 3 -12 -11 -27 -15 -74 -5
-74 5 0 11 6 13 13 3 6 6 -3 6 -21 1 -23 -3 -31 -11 -26 -8 5 -9 2 -5 -10 4
-10 7 -21 7 -24 0 -4 5 0 11 8 8 12 9 8 5 -15 -5 -28 27 -165 59 -258 8 -20 9
-35 4 -32 -5 4 -9 -1 -9 -9 0 -8 5 -18 11 -22 8 -5 8 -9 -1 -14 -9 -5 -5 -28
14 -89 14 -45 33 -95 41 -111 19 -38 19 -38 -10 -35 -14 2 -22 -1 -19 -6 3 -5
11 -9 17 -8 28 3 39 -2 33 -16 -3 -8 3 -19 12 -25 12 -8 14 -13 5 -16 -20 -8
-15 -21 9 -27 l21 -6 -24 -21 c-22 -20 -23 -21 -3 -15 12 3 29 2 39 -1 15 -6
15 -9 -6 -21 l-24 -14 28 4 c15 2 30 0 33 -4 3 -5 0 -9 -5 -9 -8 0 -7 -7 1
-20 7 -10 15 -15 18 -10 3 5 12 5 19 1 11 -7 9 -11 -8 -20 -23 -13 -29 -33 -8
-30 42 5 44 -14 3 -31 -20 -9 -20 -9 4 -8 14 1 40 0 59 0 l33 -2 -23 -20 -24
-19 38 6 c33 5 37 3 37 -16 0 -16 6 -21 25 -21 l26 0 -21 -22 c-20 -21 -20
-23 -3 -26 41 -7 49 -12 33 -23 -11 -7 -2 -9 33 -7 46 3 47 3 25 -14 l-23 -18
30 0 c23 0 27 -3 15 -10 -12 -7 -8 -10 15 -10 29 -1 29 -1 10 -16 -19 -15 -17
-16 25 -11 l45 5 -35 -19 -35 -20 45 5 c25 3 36 3 25 0 -11 -3 -26 -13 -33
-22 -7 -9 -25 -22 -40 -29 l-27 -12 30 6 c17 3 44 12 62 20 63 29 67 8 5 -22
-34 -16 -62 -34 -62 -38 0 -5 4 -6 9 -3 12 8 146 18 139 11 -3 -3 -18 -8 -34
-11 -42 -7 -184 -53 -219 -70 -16 -8 -21 -12 -10 -9 64 20 216 57 250 61 39 5
39 4 20 -12 -18 -15 -18 -16 -2 -10 10 3 25 6 33 6 8 0 11 6 8 15 -4 9 0 15
10 15 9 0 16 -5 16 -11 0 -7 10 -9 26 -5 47 12 16 -11 -47 -33 -97 -36 -75
-36 79 -1 77 18 88 8 17 -15 -38 -13 -78 -24 -87 -24 -10 -1 -18 -5 -18 -10 0
-10 165 24 195 40 15 8 13 5 -5 -13 -23 -21 -92 -58 -108 -58 -4 0 2 7 12 15
30 23 14 18 -60 -19 -38 -18 -84 -37 -101 -41 -18 -3 -33 -11 -33 -16 0 -11
14 -12 24 -2 3 4 12 8 19 9 7 1 26 8 42 15 17 7 44 14 60 16 17 2 47 8 68 15
20 6 40 9 43 6 3 -3 -21 -14 -53 -23 -101 -31 -204 -68 -199 -72 2 -2 29 3 60
12 62 18 100 10 51 -11 -17 -7 -25 -13 -19 -14 7 0 27 7 45 15 19 8 26 14 17
15 -34 0 -18 25 18 28 19 1 43 6 52 11 10 5 26 5 37 0 18 -9 18 -9 -2 -5 -13
2 -23 0 -23 -4 0 -5 -14 -11 -30 -15 -17 -4 -27 -11 -24 -16 4 -6 11 -6 20 2
9 7 14 8 14 1 0 -9 -17 -18 -55 -29 -5 -1 -37 -11 -70 -22 -33 -10 -82 -26
-110 -34 -108 -34 -10 -14 169 33 104 28 190 50 192 50 10 0 2 49 -8 53 -10 4
-10 6 0 6 9 1 12 119 12 555 l0 554 -37 12 c-81 26 -325 153 -400 208 -107 80
-112 82 -90 49 28 -43 20 -44 -22 -3 -22 22 -37 45 -34 52 3 9 0 12 -9 9 -8
-3 -21 1 -28 10 -10 12 -16 13 -27 3 -12 -10 -25 -1 -75 52 -137 144 -208 287
-243 490 -21 121 -6 242 49 396 14 38 32 98 41 134 19 74 78 191 132 259 44
56 143 141 204 175 l44 26 -621 0 -621 0 -8 -42z m161 -400 l29 -33 -32 29
c-31 28 -38 36 -30 36 2 0 16 -15 33 -32z m369 -388 c-3 -5 -14 -10 -23 -10
-15 0 -15 2 -2 10 20 13 33 13 25 0z m220 -455 c-3 -32 -11 -40 -18 -20 -4 8
-2 15 3 15 6 0 9 3 9 8 -2 11 1 22 5 22 2 0 3 -11 1 -25z m23 -45 c-7 -17 -15
-25 -19 -18 -4 6 -1 18 7 26 9 8 12 23 9 36 -5 19 -5 19 5 3 9 -13 8 -25 -2
-47z m-8 -70 c-6 -11 -13 -20 -16 -20 -2 0 0 9 6 20 6 11 13 20 16 20 2 0 0
-9 -6 -20z m1 -47 c-11 -21 -20 -35 -21 -31 0 12 33 78 38 74 2 -2 -6 -21 -17
-43z m29 7 c-6 -11 -13 -20 -16 -20 -2 0 0 9 6 20 6 11 13 20 16 20 2 0 0 -9
-6 -20z m3 -35 c-3 -9 -8 -14 -10 -11 -3 3 -2 9 2 15 9 16 15 13 8 -4z m-2
-58 c-10 -9 -11 -8 -5 6 3 10 9 15 12 12 3 -3 0 -11 -7 -18z m3 -51 c-3 -15
-8 -25 -11 -23 -2 3 -1 17 3 31 3 15 8 25 11 23 2 -3 1 -17 -3 -31z m-7 -68
c-3 -10 -1 -21 4 -24 5 -3 9 -13 8 -22 -1 -19 -38 55 -39 77 0 11 3 11 16 0 8
-7 13 -21 11 -31z m50 -10 c-3 -8 -6 -5 -6 6 -1 11 2 17 5 13 3 -3 4 -12 1
-19z m-14 -61 c-4 -19 -8 -25 -13 -16 -5 7 -3 20 3 30 15 23 16 20 10 -14z
m17 -56 c0 -11 5 -23 10 -26 6 -3 10 -12 10 -18 0 -7 -9 2 -20 18 -22 34 -25
45 -10 45 6 0 10 -9 10 -19z m47 -33 c-3 -8 -6 -5 -6 6 -1 11 2 17 5 13 3 -3
4 -12 1 -19z m82 -79 c-6 -19 -13 -40 -15 -48 -3 -8 -7 -12 -9 -9 -3 2 2 26
11 52 18 53 30 58 13 5z m-43 -3 c0 -14 -5 -21 -9 -17 -4 4 -5 15 -1 24 9 24
12 21 10 -7z m151 2 c-3 -8 -6 -5 -6 6 -1 11 2 17 5 13 3 -3 4 -12 1 -19z
m-63 -32 c-3 -15 -8 -25 -11 -23 -2 3 -1 17 3 31 3 15 8 25 11 23 2 -3 1 -17
-3 -31z m26 -76 c-6 -23 -14 -40 -16 -37 -3 3 0 24 7 46 16 54 24 46 9 -9z
m-43 8 c-3 -8 -6 -5 -6 6 -1 11 2 17 5 13 3 -3 4 -12 1 -19z m453 -4 c0 -2 -9
0 -20 6 -11 6 -20 13 -20 16 0 2 9 0 20 -6 11 -6 20 -13 20 -16z m-333 -106
c-3 -8 -6 -5 -6 6 -1 11 2 17 5 13 3 -3 4 -12 1 -19z m310 -684 c-3 -3 -12 -4
-19 -1 -8 3 -5 6 6 6 11 1 17 -2 13 -5z m263 -239 c-7 -8 -16 -13 -20 -10 -5
3 -11 1 -15 -4 -3 -6 -13 -7 -22 -4 -15 6 2 14 66 32 2 1 -2 -6 -9 -14z"/>
<path d="M9731 10194 c-122 -92 -228 -233 -273 -363 -19 -55 -23 -87 -23 -191
0 -111 3 -135 28 -210 36 -106 120 -258 197 -354 119 -147 281 -277 479 -383
l101 -55 0 801 0 801 -224 0 -224 0 -61 -46z"/>
<path d="M5338 10213 c7 -3 16 -2 19 1 4 3 -2 6 -13 5 -11 0 -14 -3 -6 -6z"/>
<path d="M5288 10203 c6 -2 18 -2 25 0 6 3 1 5 -13 5 -14 0 -19 -2 -12 -5z"/>
<path d="M5238 10193 c7 -3 16 -2 19 1 4 3 -2 6 -13 5 -11 0 -14 -3 -6 -6z"/>
<path d="M1400 10111 c-36 -12 -88 -39 -95 -51 -3 -5 20 3 52 18 75 35 195 38
258 7 37 -19 40 -23 45 -70 l5 -50 7 38 c9 51 5 60 -45 87 -32 19 -60 24 -122
27 -44 1 -91 -1 -105 -6z"/>
<path d="M4558 10033 c6 -2 18 -2 25 0 6 3 1 5 -13 5 -14 0 -19 -2 -12 -5z"/>
<path d="M1490 10010 c-8 -5 -10 -10 -5 -10 6 0 17 5 25 10 8 5 11 10 5 10 -5
0 -17 -5 -25 -10z"/>
<path d="M1458 9883 c7 -3 16 -2 19 1 4 3 -2 6 -13 5 -11 0 -14 -3 -6 -6z"/>
<path d="M1160 9860 c-9 -6 -10 -10 -3 -10 6 0 15 5 18 10 8 12 4 12 -15 0z"/>
<path d="M9317 9360 c5 -99 26 -220 43 -249 9 -15 9 -15 10 1 0 9 -9 56 -19
105 -11 48 -24 122 -29 163 l-10 75 5 -95z"/>
<path d="M9017 9359 c7 -7 15 -10 18 -7 3 3 -2 9 -12 12 -14 6 -15 5 -6 -5z"/>
<path d="M9070 9324 c0 -8 5 -12 10 -9 6 4 8 11 5 16 -9 14 -15 11 -15 -7z"/>
<path d="M1958 9303 c7 -3 16 -2 19 1 4 3 -2 6 -13 5 -11 0 -14 -3 -6 -6z"/>
<path d="M1780 9254 l-45 -14 40 6 c22 3 47 10 55 15 21 12 3 10 -50 -7z"/>
<path d="M9160 9266 c0 -2 7 -6 15 -10 8 -3 15 -1 15 4 0 6 -7 10 -15 10 -8 0
-15 -2 -15 -4z"/>
<path d="M9110 9249 c0 -5 5 -7 10 -4 6 3 10 8 10 11 0 2 -4 4 -10 4 -5 0 -10
-5 -10 -11z"/>
<path d="M1655 9224 l-50 -13 50 5 c47 6 102 24 65 23 -8 -1 -37 -7 -65 -15z"/>
<path d="M9005 9193 c-11 -3 -24 -9 -29 -14 -12 -11 66 1 79 12 10 10 -15 10
-50 2z"/>
<path d="M9158 9153 c6 -2 18 -2 25 0 6 3 1 5 -13 5 -14 0 -19 -2 -12 -5z"/>
<path d="M9212 9131 c-11 -7 -10 -10 3 -15 22 -8 22 -8 22 9 0 17 -6 18 -25 6z"/>
<path d="M9250 9100 c0 -5 -8 -10 -17 -10 -13 0 -15 -2 -5 -8 7 -5 10 -16 6
-25 -4 -12 -2 -16 7 -12 13 5 25 65 14 65 -3 0 -5 -4 -5 -10z"/>
<path d="M9650 9033 c0 -5 11 -20 25 -33 14 -13 25 -28 25 -33 0 -6 18 -35 41
-65 23 -29 42 -61 43 -69 1 -8 36 -46 76 -84 41 -38 71 -69 66 -69 -12 0 -80
42 -84 52 -5 10 -42 10 -42 0 0 -11 135 -132 195 -174 43 -31 225 -128 240
-128 3 0 5 44 5 98 l0 97 -78 37 c-176 85 -301 172 -429 299 -46 45 -83 77
-83 72z"/>
<path d="M9220 9026 c0 -2 7 -6 15 -10 8 -3 15 -1 15 4 0 6 -7 10 -15 10 -8 0
-15 -2 -15 -4z"/>
<path d="M9720 8803 c0 -5 11 -20 25 -33 14 -13 25 -19 25 -13 0 5 -11 20 -25
33 -14 13 -25 19 -25 13z"/>
<path d="M9857 8597 c68 -55 176 -119 272 -162 57 -25 106 -43 109 -40 8 7 11
6 -149 83 -80 39 -170 87 -199 107 -60 40 -75 46 -33 12z"/>
<path d="M9740 7480 c-9 -6 -10 -10 -3 -10 6 0 15 5 18 10 8 12 4 12 -15 0z"/>
<path d="M9788 7483 c7 -3 16 -2 19 1 4 3 -2 6 -13 5 -11 0 -14 -3 -6 -6z"/>
<path d="M9760 7411 c0 -5 -12 -12 -26 -15 -15 -4 -24 -9 -21 -12 7 -8 77 18
77 28 0 4 -7 8 -15 8 -8 0 -15 -4 -15 -9z"/>
<path d="M9668 7393 c7 -3 16 -2 19 1 4 3 -2 6 -13 5 -11 0 -14 -3 -6 -6z"/>
<path d="M9908 7363 c7 -3 16 -2 19 1 4 3 -2 6 -13 5 -11 0 -14 -3 -6 -6z"/>
<path d="M9628 7353 c7 -3 16 -2 19 1 4 3 -2 6 -13 5 -11 0 -14 -3 -6 -6z"/>
<path d="M9626 7321 c-4 -5 3 -7 14 -4 23 6 26 13 6 13 -8 0 -17 -4 -20 -9z"/>
<path d="M9490 7300 c-8 -5 -10 -10 -5 -10 6 0 17 5 25 10 8 5 11 10 5 10 -5
0 -17 -5 -25 -10z"/>
<path d="M9960 7300 c0 -5 5 -10 10 -10 6 0 10 5 10 10 0 6 -4 10 -10 10 -5 0
-10 -4 -10 -10z"/>
<path d="M9855 7270 c-13 -6 -15 -9 -5 -9 8 0 22 4 30 9 18 12 2 12 -25 0z"/>
<path d="M9938 7263 c7 -3 16 -2 19 1 4 3 -2 6 -13 5 -11 0 -14 -3 -6 -6z"/>
<path d="M9840 7220 c0 -6 7 -10 15 -10 8 0 15 2 15 4 0 2 -7 6 -15 10 -8 3
-15 1 -15 -4z"/>
<path d="M9785 7204 c-16 -8 -22 -12 -12 -9 10 3 27 5 38 5 10 0 19 5 19 10 0
13 -9 12 -45 -6z"/>
<path d="M9815 7175 c-25 -12 -26 -14 -5 -9 14 4 29 10 35 15 12 12 5 11 -30
-6z"/>
<path d="M10095 7140 c-66 -22 -150 -47 -188 -56 -37 -9 -66 -18 -63 -21 2 -3
50 7 105 21 56 15 114 28 129 30 25 3 37 7 80 23 35 13 44 12 38 -5 -5 -15 -4
-15 8 1 7 9 18 17 25 17 6 0 11 7 11 15 0 20 -7 19 -145 -25z"/>
<path d="M0 6404 c0 -604 3 -754 13 -747 6 6 80 64 163 129 83 66 279 218 437
339 157 121 286 226 286 232 1 7 -108 108 -241 224 -134 116 -299 262 -368
323 -69 62 -162 145 -207 185 l-83 72 0 -757z"/>
<path d="M9658 7133 c7 -3 16 -2 19 1 4 3 -2 6 -13 5 -11 0 -14 -3 -6 -6z"/>
<path d="M10155 7120 c-3 -5 -2 -10 4 -10 5 0 13 5 16 10 3 6 2 10 -4 10 -5 0
-13 -4 -16 -10z"/>
<path d="M10085 7100 c-25 -11 1 -11 35 0 20 6 21 8 5 8 -11 0 -29 -3 -40 -8z"/>
<path d="M10205 7100 c-3 -5 -15 -10 -26 -10 -13 0 -18 -4 -13 -12 5 -7 3 -8
-5 -3 -7 4 -31 0 -54 -8 -23 -8 -57 -18 -76 -21 -61 -11 -171 -47 -171 -56 0
-5 33 2 73 15 84 27 154 44 219 56 52 9 88 25 88 39 0 13 -27 13 -35 0z"/>
<path d="M9785 7091 c-11 -5 -23 -7 -27 -4 -5 2 -8 -1 -8 -7 0 -12 30 -6 60
11 19 11 2 10 -25 0z"/>
<path d="M9705 7070 c-3 -5 1 -10 9 -10 9 0 16 5 16 10 0 6 -4 10 -9 10 -6 0
-13 -4 -16 -10z"/>
<path d="M9645 7053 c-11 -3 -24 -10 -30 -15 -12 -13 35 0 50 13 5 5 7 8 5 8
-3 -1 -14 -3 -25 -6z"/>
<path d="M9785 7050 c-13 -6 -15 -9 -5 -9 8 0 22 4 30 9 18 12 2 12 -25 0z"/>
<path d="M10157 7019 c7 -7 15 -10 18 -7 3 3 -2 9 -12 12 -14 6 -15 5 -6 -5z"/>
<path d="M10196 7022 c-4 -7 -4 -12 1 -13 4 0 -14 -8 -42 -18 -27 -9 -54 -14
-60 -10 -5 3 -23 1 -39 -6 -39 -16 -17 -28 31 -16 121 30 178 51 141 51 -9 0
-18 5 -20 12 -3 9 -6 9 -12 0z"/>
<path d="M9800 6981 c0 -5 9 -7 20 -4 11 3 20 7 20 9 0 2 -9 4 -20 4 -11 0
-20 -4 -20 -9z"/>
<path d="M9758 6963 c6 -2 18 -2 25 0 6 3 1 5 -13 5 -14 0 -19 -2 -12 -5z"/>
<path d="M10200 6960 c-18 -12 -2 -12 25 0 13 6 15 9 5 9 -8 0 -22 -4 -30 -9z"/>
<path d="M9680 6950 c0 -6 7 -10 15 -10 8 0 15 2 15 4 0 2 -7 6 -15 10 -8 3
-15 1 -15 -4z"/>
<path d="M9990 6949 c0 -5 -7 -9 -17 -9 -9 0 -14 -3 -11 -6 3 -3 21 -1 39 4
31 7 32 9 12 14 -13 3 -23 2 -23 -3z"/>
<path d="M9940 6941 c0 -5 -8 -12 -17 -14 -14 -4 -12 -5 5 -6 13 -1 22 5 22
14 0 8 -2 15 -5 15 -3 0 -5 -4 -5 -9z"/>
<path d="M10130 6941 c-8 -5 -32 -11 -52 -15 -24 -4 -38 -13 -38 -21 0 -17 16
-20 25 -5 3 5 13 7 23 4 15 -5 15 -4 2 6 -12 9 -4 10 35 6 35 -3 42 -2 25 4
-24 8 -24 8 -2 9 12 1 22 6 22 11 0 12 -19 13 -40 1z"/>
<path d="M9868 6933 c7 -3 16 -2 19 1 4 3 -2 6 -13 5 -11 0 -14 -3 -6 -6z"/>
<path d="M10195 6930 c-16 -7 -17 -9 -3 -9 9 -1 20 4 23 9 7 11 7 11 -20 0z"/>
<path d="M9610 6919 c0 -5 5 -7 10 -4 6 3 10 8 10 11 0 2 -4 4 -10 4 -5 0 -10
-5 -10 -11z"/>
<path d="M10218 6912 c-10 -2 -18 -8 -18 -13 0 -11 11 -11 30 1 18 11 11 18
-12 12z"/>
<path d="M9858 6903 c6 -2 18 -2 25 0 6 3 1 5 -13 5 -14 0 -19 -2 -12 -5z"/>
<path d="M9997 6890 c-3 -11 -4 -20 -3 -20 1 0 9 9 19 20 13 15 14 20 3 20 -7
0 -16 -9 -19 -20z"/>
<path d="M9810 6890 c-8 -5 -10 -10 -5 -10 6 0 17 5 25 10 8 5 11 10 5 10 -5
0 -17 -5 -25 -10z"/>
<path d="M9962 6893 c-6 -2 -9 -9 -6 -15 5 -7 -3 -9 -22 -5 -27 6 -27 6 -6 -5
19 -9 26 -8 43 10 19 21 17 26 -9 15z"/>
<path d="M10158 6895 c-3 -3 -18 -8 -34 -11 -65 -10 -84 -16 -84 -25 0 -11 17
-12 24 -1 2 4 24 9 47 11 40 2 103 31 68 31 -9 0 -18 -2 -21 -5z"/>
<path d="M10222 6869 c-8 -12 -19 -18 -28 -15 -19 7 -44 -3 -44 -19 0 -15 -28
-29 -52 -26 -10 1 -18 -2 -18 -8 0 -6 8 -7 17 -4 12 5 15 2 10 -10 -3 -9 -2
-17 3 -17 6 0 10 7 10 15 0 8 11 17 25 21 13 3 23 11 22 17 -1 6 6 13 16 15
31 6 19 -28 -15 -43 -18 -8 -27 -14 -20 -15 23 0 73 34 68 47 -3 7 2 16 10 21
9 5 14 17 13 26 -4 14 -6 14 -17 -5z"/>
<path d="M9897 6859 c7 -7 15 -10 18 -7 3 3 -2 9 -12 12 -14 6 -15 5 -6 -5z"/>
<path d="M9968 6848 c-21 -6 -38 -14 -38 -20 0 -10 25 -4 75 17 35 16 16 17
-37 3z"/>
<path d="M9837 6839 c7 -7 15 -10 18 -7 3 3 -2 9 -12 12 -14 6 -15 5 -6 -5z"/>
<path d="M10110 6839 c0 -5 5 -7 10 -4 6 3 10 8 10 11 0 2 -4 4 -10 4 -5 0
-10 -5 -10 -11z"/>
<path d="M9805 6830 c3 -5 8 -10 11 -10 2 0 4 5 4 10 0 6 -5 10 -11 10 -5 0
-7 -4 -4 -10z"/>
<path d="M9845 6813 c-33 -11 -44 -18 -31 -21 10 -2 23 1 29 7 6 6 20 11 32
11 11 0 27 5 35 10 23 15 -5 12 -65 -7z"/>
<path d="M10033 6823 c-27 -5 -50 -30 -28 -30 8 0 15 4 15 9 0 4 9 8 19 8 11
0 23 5 26 10 3 6 3 9 -2 9 -4 -1 -18 -4 -30 -6z"/>
<path d="M9760 6784 l-25 -15 25 7 c28 7 35 12 29 18 -2 2 -15 -2 -29 -10z"/>
<path d="M9880 6780 c-30 -10 -46 -18 -35 -19 11 0 47 8 80 18 36 12 50 19 35
19 -14 1 -50 -7 -80 -18z"/>
<path d="M10205 6769 c6 -9 2 -11 -13 -7 -12 4 -22 2 -22 -3 0 -5 7 -9 16 -9
8 0 13 -4 10 -9 -3 -5 -14 -7 -25 -4 -17 4 -38 -23 -26 -35 3 -3 5 0 5 7 0 7
5 9 12 5 7 -5 8 -3 3 6 -5 9 -2 10 13 6 15 -5 22 -2 27 14 3 11 11 20 16 20
12 0 10 -10 -9 -44 -14 -22 -37 -36 -107 -61 -122 -44 -155 -58 -155 -66 0 -4
17 -3 38 3 20 6 48 11 62 10 21 -1 22 0 6 7 -22 8 -15 15 26 25 23 5 27 3 22
-11 -5 -15 -4 -15 4 -3 6 8 9 17 6 21 -2 4 10 9 26 11 36 5 39 1 8 -12 l-23
-9 22 0 c16 -1 31 14 57 57 39 61 42 85 12 90 -13 3 -16 0 -11 -9z"/>
<path d="M10120 6755 c-14 -7 -42 -17 -64 -20 -26 -5 -34 -10 -25 -16 8 -4 19
-3 26 3 10 8 13 7 13 -3 0 -9 3 -10 8 -3 4 6 24 17 45 23 20 7 37 17 37 22 0
12 -10 11 -40 -6z"/>
<path d="M9798 6753 c7 -3 16 -2 19 1 4 3 -2 6 -13 5 -11 0 -14 -3 -6 -6z"/>
<path d="M9746 6741 c-4 -5 3 -7 14 -4 23 6 26 13 6 13 -8 0 -17 -4 -20 -9z"/>
<path d="M9928 6733 c7 -3 16 -2 19 1 4 3 -2 6 -13 5 -11 0 -14 -3 -6 -6z"/>
<path d="M10011 6694 c0 -11 3 -14 6 -6 3 7 2 16 -1 19 -3 4 -6 -2 -5 -13z"/>
<path d="M10048 6693 c7 -3 16 -2 19 1 4 3 -2 6 -13 5 -11 0 -14 -3 -6 -6z"/>
<path d="M9898 6663 c7 -3 16 -2 19 1 4 3 -2 6 -13 5 -11 0 -14 -3 -6 -6z"/>
<path d="M10130 6595 c-7 -9 -8 -15 -2 -15 5 0 12 7 16 15 3 8 4 15 2 15 -2 0
-9 -7 -16 -15z"/>
<path d="M9850 6570 l-55 -19 42 2 c24 1 43 5 43 9 0 4 7 5 15 2 8 -4 15 -1
15 6 0 6 4 9 9 5 5 -3 12 -1 16 5 9 15 -23 11 -85 -10z"/>
<path d="M10050 6570 c-9 -6 -10 -10 -3 -10 6 0 15 5 18 10 8 12 4 12 -15 0z"/>
<path d="M9960 6449 c0 -5 5 -7 10 -4 6 3 10 8 10 11 0 2 -4 4 -10 4 -5 0 -10
-5 -10 -11z"/>
<path d="M9908 6423 c7 -3 16 -2 19 1 4 3 -2 6 -13 5 -11 0 -14 -3 -6 -6z"/>
<path d="M10190 5995 c-25 -14 -51 -25 -59 -25 -8 0 -12 -3 -9 -6 11 -10 118
29 118 43 0 16 4 17 -50 -12z"/>
<path d="M10140 6000 c-8 -5 -10 -10 -5 -10 6 0 17 5 25 10 8 5 11 10 5 10 -5
0 -17 -5 -25 -10z"/>
<path d="M10070 5980 c-13 -9 -13 -10 0 -9 8 0 24 4 35 9 l20 9 -20 0 c-11 0
-27 -4 -35 -9z"/>
<path d="M10200 5950 c-21 -7 -21 -8 -5 -9 11 0 27 4 35 9 18 11 5 11 -30 0z"/>
<path d="M10105 5923 c-19 -13 -18 -14 10 -7 37 8 39 10 23 17 -8 2 -23 -2
-33 -10z"/>
<path d="M10106 5881 c-4 -5 3 -7 14 -4 23 6 26 13 6 13 -8 0 -17 -4 -20 -9z"/>
<path d="M10198 5843 c7 -3 16 -2 19 1 4 3 -2 6 -13 5 -11 0 -14 -3 -6 -6z"/>
<path d="M9294 5762 c-70 -24 -123 -69 -178 -150 -56 -82 -69 -146 -42 -214
25 -65 58 -96 164 -153 92 -50 235 -129 567 -318 83 -46 214 -121 293 -165
l142 -81 0 359 0 359 -52 19 c-29 11 -82 33 -118 50 -36 16 -147 67 -248 112
-101 46 -211 101 -245 123 -114 75 -190 91 -283 59z m310 -91 c10 -11 13 -22
8 -25 -9 -6 -20 4 -36 32 -11 19 9 14 28 -7z"/>
<path d="M10225 2530 c-3 -5 -1 -10 4 -10 6 0 11 5 11 10 0 6 -2 10 -4 10 -3
0 -8 -4 -11 -10z"/>
<path d="M0 2090 c0 -5 7 -7 15 -4 19 8 19 14 0 14 -8 0 -15 -4 -15 -10z"/>
<path d="M0 2050 c0 -5 7 -10 15 -10 8 0 15 5 15 10 0 6 -7 10 -15 10 -8 0
-15 -4 -15 -10z"/>
<path d="M27 643 c-24 -4 -27 -8 -27 -44 0 -44 3 -46 29 -20 10 10 27 23 36
29 17 9 15 44 -2 41 -4 -1 -20 -4 -36 -6z"/>
<path d="M160 554 c0 -8 5 -12 10 -9 6 4 8 11 5 16 -9 14 -15 11 -15 -7z"/>
<path d="M198 563 c7 -3 16 -2 19 1 4 3 -2 6 -13 5 -11 0 -14 -3 -6 -6z"/>
<path d="M43 537 l-43 -10 0 -89 c0 -96 -2 -95 55 -53 17 12 38 24 48 28 9 3
17 10 17 15 0 5 15 15 33 23 17 7 41 19 52 27 18 13 16 13 -25 7 -25 -4 -52
-8 -60 -9 -9 -1 -20 -5 -25 -8 -6 -3 -25 -9 -42 -13 -26 -5 -32 -4 -28 7 6 14
89 68 105 68 6 0 10 5 10 10 0 12 -40 11 -97 -3z"/>
<path d="M280 522 c-53 -20 -55 -20 -48 -28 3 -3 32 6 64 20 65 28 55 33 -16
8z"/>
<path d="M0 255 c0 -8 7 -15 15 -15 8 0 15 7 15 15 0 8 -7 15 -15 15 -8 0 -15
-7 -15 -15z"/>
<path d="M310 248 c-30 -11 -59 -23 -65 -28 -5 -4 -38 -17 -72 -29 -50 -17
-67 -19 -93 -10 -23 9 -38 9 -56 0 -23 -10 -24 -15 -24 -96 l0 -85 91 0 c86 0
90 1 84 20 -4 11 -2 20 4 20 6 0 11 5 11 10 0 6 -6 10 -13 10 -15 0 -57 41
-57 56 0 11 36 32 152 91 48 25 90 49 93 54 4 5 5 9 3 8 -2 0 -28 -10 -58 -21z"/>
<path d="M8465 70 c3 -5 8 -10 11 -10 2 0 4 5 4 10 0 6 -5 10 -11 10 -5 0 -7
-4 -4 -10z"/>
<path d="M8385 40 c-3 -5 -1 -10 4 -10 6 0 11 5 11 10 0 6 -2 10 -4 10 -3 0
-8 -4 -11 -10z"/>
</g>
</svg>
